131204_FengardoRedux_Black 1.ufo
<glyph name="exclam" format="1">
  <advance width="245"/>
  <unicode hex="0021"/>
  <outline>
    <contour>
      <point x="22" y="83" type="curve" smooth="yes"/>
      <point x="22" y="26"/>
      <point x="66" y="-15"/>
      <point x="122" y="-15" type="curve" smooth="yes"/>
      <point x="179" y="-15"/>
      <point x="223" y="26"/>
      <point x="223" y="83" type="curve" smooth="yes"/>
      <point x="223" y="143"/>
      <point x="179" y="183"/>
      <point x="122" y="183" type="curve" smooth="yes"/>
      <point x="66" y="183"/>
      <point x="22" y="143"/>
    </contour>
    <contour>
      <point x="15" y="709" type="line"/>
      <point x="15" y="689"/>
      <point x="65" y="265"/>
      <point x="65" y="265" type="curve"/>
      <point x="178" y="265" type="line"/>
      <point x="178" y="265"/>
      <point x="230" y="715"/>
      <point x="230" y="725" type="curve"/>
    </contour>
  </outline>
</glyph>
<glyph name="quotedbl" format="1">
  <advance width="413"/>
  <unicode hex="0022"/>
  <outline>
    <contour>
      <point x="15" y="725" type="line"/>
      <point x="15" y="712"/>
      <point x="53" y="400"/>
      <point x="53" y="400" type="curve"/>
      <point x="170" y="400" type="line"/>
      <point x="170" y="400"/>
      <point x="180" y="736"/>
      <point x="180" y="742" type="curve"/>
    </contour>
    <contour>
      <point x="229" y="725" type="line"/>
      <point x="229" y="712"/>
      <point x="224" y="400"/>
      <point x="224" y="400" type="curve"/>
      <point x="341" y="400" type="line"/>
      <point x="341" y="400"/>
      <point x="398" y="736"/>
      <point x="398" y="742" type="curve"/>
    </contour>
  </outline>
</glyph>
<glyph name="ampersand" format="1">
  <advance width="647"/>
  <unicode hex="0026"/>
  <outline>
    <contour>
      <point x="299" y="429" type="line"/>
      <point x="250" y="429"/>
      <point x="234" y="466"/>
      <point x="234" y="503" type="curve" smooth="yes"/>
      <point x="234" y="538"/>
      <point x="251" y="570"/>
      <point x="291" y="570" type="curve" smooth="yes"/>
      <point x="326" y="570"/>
      <point x="349" y="542"/>
      <point x="349" y="490" type="curve"/>
      <point x="524" y="495" type="line"/>
      <point x="524" y="647"/>
      <point x="431" y="725"/>
      <point x="288" y="725" type="curve" smooth="yes"/>
      <point x="163" y="725"/>
      <point x="44" y="654"/>
      <point x="44" y="530" type="curve" smooth="yes"/>
      <point x="44" y="461"/>
      <point x="89" y="405"/>
      <point x="138" y="380" type="curve"/>
      <point x="70" y="344"/>
      <point x="25" y="282"/>
      <point x="25" y="207" type="curve" smooth="yes"/>
      <point x="25" y="70"/>
      <point x="135" y="-15"/>
      <point x="294" y="-15" type="curve" smooth="yes"/>
      <point x="454" y="-15"/>
      <point x="580" y="104"/>
      <point x="580" y="267" type="curve" smooth="yes"/>
      <point x="580" y="309" type="line"/>
      <point x="632" y="309" type="line"/>
      <point x="632" y="429" type="line"/>
      <point x="344" y="429" type="line"/>
      <point x="344" y="428"/>
      <point x="344" y="309"/>
      <point x="344" y="309" type="curve"/>
      <point x="400" y="309" type="line"/>
      <point x="400" y="252" type="line" smooth="yes"/>
      <point x="400" y="186"/>
      <point x="363" y="140"/>
      <point x="303" y="140" type="curve" smooth="yes"/>
      <point x="253" y="140"/>
      <point x="215" y="174"/>
      <point x="215" y="228" type="curve" smooth="yes"/>
      <point x="215" y="278"/>
      <point x="246" y="309"/>
      <point x="299" y="309" type="curve"/>
    </contour>
  </outline>
</glyph>
<glyph name="parenleft" format="1">
  <advance width="369"/>
  <unicode hex="0028"/>
  <outline>
    <contour>
      <point x="364" y="-124" type="line"/>
      <point x="364" y="-124"/>
      <point x="220" y="25"/>
      <point x="220" y="295" type="curve" smooth="yes"/>
      <point x="220" y="559"/>
      <point x="369" y="729"/>
      <point x="369" y="729" type="curve"/>
      <point x="266" y="746" type="line"/>
      <point x="266" y="746"/>
      <point x="40" y="595"/>
      <point x="40" y="290" type="curve" smooth="yes"/>
      <point x="40" y="-13"/>
      <point x="261" y="-151"/>
      <point x="261" y="-151" type="curve"/>
    </contour>
  </outline>
</glyph>
<glyph name="asterisk" format="1">
  <advance width="426"/>
  <unicode hex="002A"/>
  <outline>
    <contour>
      <point x="-12" y="545" type="line"/>
      <point x="114" y="512" type="line"/>
      <point x="24" y="396" type="line"/>
      <point x="121" y="331" type="line"/>
      <point x="196" y="453" type="line"/>
      <point x="272" y="329" type="line"/>
      <point x="373" y="395" type="line"/>
      <point x="275" y="515" type="line"/>
      <point x="403" y="538" type="line"/>
      <point x="369" y="651" type="line"/>
      <point x="249" y="602" type="line"/>
      <point x="263" y="740" type="line"/>
      <point x="135" y="734" type="line"/>
      <point x="150" y="602" type="line"/>
      <point x="26" y="651" type="line"/>
    </contour>
  </outline>
</glyph>
<glyph name="comma" format="1">
  <advance width="245"/>
  <unicode hex="002C"/>
  <outline>
    <contour>
      <point x="29" y="-169" type="line"/>
      <point x="98" y="-161"/>
      <point x="225" y="-104"/>
      <point x="225" y="55" type="curve" smooth="yes"/>
      <point x="225" y="126"/>
      <point x="185" y="180"/>
      <point x="116" y="180" type="curve" smooth="yes"/>
      <point x="68" y="180"/>
      <point x="17" y="146"/>
      <point x="17" y="84" type="curve" smooth="yes"/>
      <point x="17" y="25"/>
      <point x="57" y="-14"/>
      <point x="106" y="-16" type="curve"/>
      <point x="106" y="-16"/>
      <point x="103" y="-87"/>
      <point x="-5" y="-118" type="curve"/>
    </contour>
  </outline>
</glyph>
<glyph name="period" format="1">
  <advance width="249"/>
  <unicode hex="002E"/>
  <outline>
    <contour>
      <point x="25" y="85" type="curve" smooth="yes"/>
      <point x="25" y="26"/>
      <point x="68" y="-15"/>
      <point x="124" y="-15" type="curve" smooth="yes"/>
      <point x="181" y="-15"/>
      <point x="224" y="26"/>
      <point x="224" y="85" type="curve" smooth="yes"/>
      <point x="224" y="147"/>
      <point x="181" y="188"/>
      <point x="124" y="188" type="curve" smooth="yes"/>
      <point x="68" y="188"/>
      <point x="25" y="147"/>
    </contour>
  </outline>
</glyph>
<glyph name="one" format="1">
  <advance width="404"/>
  <unicode hex="0031"/>
  <outline>
    <contour>
      <point x="119" y="368" type="line"/>
      <point x="119" y="125" type="line"/>
      <point x="30" y="105" type="line"/>
      <point x="30" y="0" type="line"/>
      <point x="394" y="0" type="line"/>
      <point x="394" y="105" type="line"/>
      <point x="304" y="125" type="line"/>
      <point x="304" y="511" type="line"/>
      <point x="231" y="515" type="line"/>
      <point x="30" y="465" type="line"/>
      <point x="43" y="368" type="line"/>
    </contour>
  </outline>
</glyph>
<glyph name="two" format="1">
  <advance width="482"/>
  <unicode hex="0032"/>
  <outline>
    <contour>
      <point x="32" y="0" type="line"/>
      <point x="467" y="0" type="line"/>
      <point x="467" y="140" type="line"/>
      <point x="328" y="140" type="line"/>
      <point x="202" y="122" type="line"/>
      <point x="236" y="135"/>
      <point x="312" y="168"/>
      <point x="347" y="195" type="curve" smooth="yes"/>
      <point x="400" y="237"/>
      <point x="444" y="288"/>
      <point x="444" y="353" type="curve" smooth="yes"/>
      <point x="444" y="465"/>
      <point x="350" y="525"/>
      <point x="238" y="525" type="curve" smooth="yes"/>
      <point x="90" y="525"/>
      <point x="0" y="422"/>
      <point x="11" y="300" type="curve"/>
      <point x="181" y="309" type="line"/>
      <point x="179" y="349"/>
      <point x="194" y="375"/>
      <point x="223" y="375" type="curve" smooth="yes"/>
      <point x="246" y="375"/>
      <point x="260" y="362"/>
      <point x="260" y="335" type="curve" smooth="yes"/>
      <point x="260" y="292"/>
      <point x="226" y="256"/>
      <point x="191" y="230" type="curve" smooth="yes"/>
      <point x="121" y="178"/>
      <point x="51" y="136"/>
      <point x="23" y="116" type="curve"/>
    </contour>
  </outline>
</glyph>
<glyph name="three" format="1">
  <advance width="488"/>
  <unicode hex="0033"/>
  <outline>
    <contour>
      <point x="245" y="-155" type="curve" smooth="yes"/>
      <point x="376" y="-155"/>
      <point x="463" y="-68"/>
      <point x="463" y="59" type="curve" smooth="yes"/>
      <point x="463" y="158"/>
      <point x="400" y="225"/>
      <point x="318" y="240" type="curve"/>
      <point x="454" y="408" type="line"/>
      <point x="441" y="510" type="line"/>
      <point x="29" y="510" type="line"/>
      <point x="29" y="370" type="line"/>
      <point x="253" y="370" type="line"/>
      <point x="140" y="222" type="line"/>
      <point x="163" y="146" type="line"/>
      <point x="163" y="146"/>
      <point x="184" y="150"/>
      <point x="208" y="150" type="curve" smooth="yes"/>
      <point x="256" y="150"/>
      <point x="278" y="119"/>
      <point x="278" y="69" type="curve" smooth="yes"/>
      <point x="278" y="22"/>
      <point x="266" y="-5"/>
      <point x="232" y="-5" type="curve" smooth="yes"/>
      <point x="200" y="-5"/>
      <point x="188" y="18"/>
      <point x="185" y="57" type="curve"/>
      <point x="15" y="48" type="line"/>
      <point x="19" y="-67"/>
      <point x="93" y="-155"/>
    </contour>
  </outline>
</glyph>
<glyph name="seven" format="1">
  <advance width="457"/>
  <unicode hex="0037"/>
  <outline>
    <contour>
      <point x="436" y="510" type="line"/>
      <point x="0" y="510" type="line"/>
      <point x="0" y="370" type="line"/>
      <point x="252" y="370" type="line"/>
      <point x="11" y="-140" type="line"/>
      <point x="200" y="-140" type="line"/>
      <point x="452" y="394" type="line"/>
    </contour>
  </outline>
</glyph>
<glyph name="A" format="1">
  <advance width="597"/>
  <unicode hex="0041"/>
  <outline>
    <contour>
      <point x="402" y="0" type="line"/>
      <point x="602" y="0" type="line"/>
      <point x="437" y="710" type="line"/>
      <point x="152" y="710" type="line"/>
      <point x="152" y="668" type="line"/>
      <point x="-5" y="0" type="line"/>
      <point x="185" y="0" type="line"/>
      <point x="279" y="495" type="line"/>
      <point x="294" y="587" type="line"/>
      <point x="309" y="495" type="line"/>
    </contour>
    <contour>
      <point x="198" y="125" type="line"/>
      <point x="391" y="125" type="line"/>
      <point x="391" y="125"/>
      <point x="363" y="285"/>
      <point x="359" y="285" type="curve"/>
      <point x="232" y="285" type="line"/>
    </contour>
  </outline>
</glyph>
<glyph name="B" format="1">
  <advance width="583"/>
  <unicode hex="0042"/>
  <outline>
    <contour>
      <point x="50" y="0" type="line"/>
      <point x="50" y="0"/>
      <point x="162" y="-1"/>
      <point x="279" y="-1" type="curve" smooth="yes"/>
      <point x="495" y="-1"/>
      <point x="563" y="100"/>
      <point x="563" y="208" type="curve" smooth="yes"/>
      <point x="563" y="357"/>
      <point x="424" y="371"/>
      <point x="420" y="371" type="curve"/>
      <point x="420" y="371"/>
      <point x="420" y="374"/>
      <point x="420" y="374" type="curve"/>
      <point x="495" y="394"/>
      <point x="557" y="453"/>
      <point x="557" y="533" type="curve" smooth="yes"/>
      <point x="557" y="679"/>
      <point x="432" y="711"/>
      <point x="277" y="711" type="curve" smooth="yes"/>
      <point x="177" y="711"/>
      <point x="50" y="710"/>
      <point x="50" y="710" type="curve"/>
    </contour>
    <contour>
      <point x="245" y="300" type="line"/>
      <point x="249" y="300"/>
      <point x="266" y="301"/>
      <point x="289" y="301" type="curve" smooth="yes"/>
      <point x="344" y="301"/>
      <point x="368" y="276"/>
      <point x="368" y="232" type="curve" smooth="yes"/>
      <point x="368" y="177"/>
      <point x="331" y="164"/>
      <point x="288" y="164" type="curve" smooth="yes"/>
      <point x="265" y="164"/>
      <point x="251" y="165"/>
      <point x="245" y="165" type="curve"/>
    </contour>
    <contour>
      <point x="245" y="545" type="line"/>
      <point x="251" y="545"/>
      <point x="261" y="546"/>
      <point x="285" y="546" type="curve" smooth="yes"/>
      <point x="338" y="546"/>
      <point x="362" y="526"/>
      <point x="362" y="485" type="curve" smooth="yes"/>
      <point x="362" y="437"/>
      <point x="332" y="419"/>
      <point x="292" y="419" type="curve" smooth="yes"/>
      <point x="271" y="419"/>
      <point x="251" y="420"/>
      <point x="245" y="420" type="curve"/>
    </contour>
  </outline>
</glyph>
<glyph name="C" format="1">
  <advance width="550"/>
  <unicode hex="0043"/>
  <outline>
    <contour>
      <point x="540" y="480" type="line"/>
      <point x="545" y="648"/>
      <point x="433" y="725"/>
      <point x="295" y="725" type="curve" smooth="yes"/>
      <point x="160" y="725"/>
      <point x="38" y="648"/>
      <point x="32" y="493" type="curve" smooth="yes"/>
      <point x="29" y="421"/>
      <point x="30" y="331"/>
      <point x="32" y="222" type="curve" smooth="yes"/>
      <point x="35" y="73"/>
      <point x="137" y="-15"/>
      <point x="289" y="-15" type="curve" smooth="yes"/>
      <point x="451" y="-15"/>
      <point x="545" y="85"/>
      <point x="545" y="230" type="curve"/>
      <point x="365" y="235" type="line"/>
      <point x="365" y="178"/>
      <point x="330" y="150"/>
      <point x="294" y="150" type="curve" smooth="yes"/>
      <point x="254" y="150"/>
      <point x="229" y="178"/>
      <point x="227" y="232" type="curve" smooth="yes"/>
      <point x="225" y="308"/>
      <point x="224" y="416"/>
      <point x="227" y="484" type="curve" smooth="yes"/>
      <point x="229" y="535"/>
      <point x="257" y="560"/>
      <point x="295" y="560" type="curve" smooth="yes"/>
      <point x="334" y="560"/>
      <point x="360" y="532"/>
      <point x="360" y="475" type="curve"/>
    </contour>
  </outline>
</glyph>
<glyph name="D" format="1">
  <advance width="596"/>
  <unicode hex="0044"/>
  <outline>
    <contour>
      <point x="50" y="0" type="line"/>
      <point x="50" y="0"/>
      <point x="125" y="-5"/>
      <point x="223" y="-5" type="curve" smooth="yes"/>
      <point x="407" y="-5"/>
      <point x="550" y="50"/>
      <point x="563" y="224" type="curve" smooth="yes"/>
      <point x="569" y="306"/>
      <point x="563" y="413"/>
      <point x="558" y="480" type="curve" smooth="yes"/>
      <point x="544" y="676"/>
      <point x="380" y="715"/>
      <point x="231" y="715" type="curve" smooth="yes"/>
      <point x="135" y="715"/>
      <point x="50" y="710"/>
      <point x="50" y="710" type="curve"/>
    </contour>
    <contour>
      <point x="364" y="467" type="curve" smooth="yes"/>
      <point x="368" y="401"/>
      <point x="368" y="294"/>
      <point x="364" y="244" type="curve" smooth="yes"/>
      <point x="359" y="181"/>
      <point x="320" y="160"/>
      <point x="265" y="160" type="curve" smooth="yes"/>
      <point x="241" y="160"/>
      <point x="240" y="162"/>
      <point x="240" y="162" type="curve"/>
      <point x="240" y="548" type="line"/>
      <point x="240" y="548"/>
      <point x="240" y="550"/>
      <point x="268" y="550" type="curve" smooth="yes"/>
      <point x="319" y="550"/>
      <point x="360" y="529"/>
    </contour>
  </outline>
</glyph>
<glyph name="E" format="1">
  <advance width="504"/>
  <unicode hex="0045"/>
  <outline>
    <contour>
      <point x="50" y="0" type="line"/>
      <point x="464" y="0" type="line"/>
      <point x="464" y="165" type="line"/>
      <point x="245" y="165" type="line"/>
      <point x="245" y="280" type="line"/>
      <point x="443" y="280" type="line"/>
      <point x="443" y="440" type="line"/>
      <point x="245" y="440" type="line"/>
      <point x="245" y="545" type="line"/>
      <point x="464" y="545" type="line"/>
      <point x="464" y="710" type="line"/>
      <point x="50" y="710" type="line"/>
    </contour>
  </outline>
</glyph>
<glyph name="F" format="1">
  <advance width="476"/>
  <unicode hex="0046"/>
  <outline>
    <contour>
      <point x="50" y="0" type="line"/>
      <point x="245" y="0" type="line"/>
      <point x="245" y="250" type="line"/>
      <point x="451" y="250" type="line"/>
      <point x="451" y="410" type="line"/>
      <point x="245" y="410" type="line"/>
      <point x="245" y="545" type="line"/>
      <point x="471" y="545" type="line"/>
      <point x="471" y="710" type="line"/>
      <point x="50" y="710" type="line"/>
    </contour>
  </outline>
</glyph>
<glyph name="G" format="1">
  <advance width="580"/>
  <unicode hex="0047"/>
  <outline>
    <contour>
      <point x="558" y="235" type="curve" smooth="yes"/>
      <point x="560" y="289"/>
      <point x="559" y="400"/>
      <point x="559" y="400" type="curve"/>
      <point x="301" y="400" type="line"/>
      <point x="301" y="260" type="line"/>
      <point x="373" y="260" type="line"/>
      <point x="373" y="260"/>
      <point x="374" y="240"/>
      <point x="373" y="224" type="curve" smooth="yes"/>
      <point x="370" y="179"/>
      <point x="345" y="150"/>
      <point x="300" y="150" type="curve" smooth="yes"/>
      <point x="261" y="150"/>
      <point x="229" y="177"/>
      <point x="227" y="232" type="curve" smooth="yes"/>
      <point x="224" y="308"/>
      <point x="224" y="416"/>
      <point x="227" y="484" type="curve" smooth="yes"/>
      <point x="229" y="530"/>
      <point x="257" y="560"/>
      <point x="298" y="560" type="curve" smooth="yes"/>
      <point x="337" y="560"/>
      <point x="367" y="532"/>
      <point x="367" y="475" type="curve"/>
      <point x="547" y="480" type="line"/>
      <point x="552" y="648"/>
      <point x="436" y="725"/>
      <point x="298" y="725" type="curve" smooth="yes"/>
      <point x="163" y="725"/>
      <point x="38" y="648"/>
      <point x="32" y="493" type="curve" smooth="yes"/>
      <point x="29" y="421"/>
      <point x="30" y="331"/>
      <point x="32" y="222" type="curve" smooth="yes"/>
      <point x="35" y="65"/>
      <point x="150" y="-15"/>
      <point x="294" y="-15" type="curve" smooth="yes"/>
      <point x="433" y="-15"/>
      <point x="552" y="56"/>
    </contour>
  </outline>
</glyph>
<glyph name="H" format="1">
  <advance width="650"/>
  <unicode hex="0048"/>
  <outline>
    <contour>
      <point x="600" y="710" type="line"/>
      <point x="405" y="710" type="line"/>
      <point x="405" y="440" type="line"/>
      <point x="245" y="440" type="line"/>
      <point x="245" y="710" type="line"/>
      <point x="50" y="710" type="line"/>
      <point x="50" y="0" type="line"/>
      <point x="245" y="0" type="line"/>
      <point x="245" y="275" type="line"/>
      <point x="405" y="275" type="line"/>
      <point x="405" y="0" type="line"/>
      <point x="600" y="0" type="line"/>
    </contour>
  </outline>
</glyph>
<glyph name="I" format="1">
  <advance width="295"/>
  <unicode hex="0049"/>
  <outline>
    <contour>
      <point x="245" y="710" type="line"/>
      <point x="50" y="710" type="line"/>
      <point x="50" y="0" type="line"/>
      <point x="245" y="0" type="line"/>
    </contour>
  </outline>
</glyph>
<glyph name="J" format="1">
  <advance width="512"/>
  <unicode hex="004A"/>
  <outline>
    <contour>
      <point x="277" y="710" type="line"/>
      <point x="277" y="230" type="line" smooth="yes"/>
      <point x="277" y="174"/>
      <point x="261" y="150"/>
      <point x="227" y="150" type="curve" smooth="yes"/>
      <point x="189" y="150"/>
      <point x="170" y="179"/>
      <point x="171" y="235" type="curve"/>
      <point x="1" y="230" type="line"/>
      <point x="-8" y="68"/>
      <point x="96" y="-15"/>
      <point x="231" y="-15" type="curve" smooth="yes"/>
      <point x="363" y="-15"/>
      <point x="472" y="65"/>
      <point x="472" y="230" type="curve" smooth="yes"/>
      <point x="472" y="710" type="line"/>
    </contour>
  </outline>
</glyph>
<glyph name="K" format="1">
  <advance width="619"/>
  <unicode hex="004B"/>
  <outline>
    <contour>
      <point x="624" y="0" type="line"/>
      <point x="449" y="383" type="line"/>
      <point x="615" y="710" type="line"/>
      <point x="409" y="710" type="line"/>
      <point x="250" y="361" type="line"/>
      <point x="409" y="0" type="line"/>
    </contour>
    <contour>
      <point x="245" y="710" type="line"/>
      <point x="50" y="710" type="line"/>
      <point x="50" y="0" type="line"/>
      <point x="245" y="0" type="line"/>
    </contour>
  </outline>
</glyph>
<glyph name="M" format="1">
  <advance width="758"/>
  <unicode hex="004D"/>
  <outline>
    <contour>
      <point x="402" y="130" type="line"/>
      <point x="485" y="311" type="line"/>
      <point x="523" y="408" type="line"/>
      <point x="525" y="407" type="line"/>
      <point x="515" y="311" type="line"/>
      <point x="513" y="0" type="line"/>
      <point x="708" y="0" type="line"/>
      <point x="708" y="710" type="line"/>
      <point x="524" y="710" type="line"/>
      <point x="408" y="444" type="line"/>
      <point x="379" y="366" type="line"/>
      <point x="377" y="366" type="line"/>
      <point x="346" y="445" type="line"/>
      <point x="240" y="710" type="line"/>
      <point x="50" y="710" type="line"/>
      <point x="50" y="0" type="line"/>
      <point x="235" y="0" type="line"/>
      <point x="233" y="309" type="line"/>
      <point x="223" y="407" type="line"/>
      <point x="225" y="408" type="line"/>
      <point x="260" y="312" type="line"/>
      <point x="339" y="130" type="line"/>
    </contour>
  </outline>
</glyph>
<glyph name="N" format="1">
  <advance width="643"/>
  <unicode hex="004E"/>
  <outline>
    <contour>
      <point x="413" y="710" type="line"/>
      <point x="413" y="313" type="line"/>
      <point x="389" y="380" type="line"/>
      <point x="213" y="710" type="line"/>
      <point x="45" y="710" type="line"/>
      <point x="45" y="0" type="line"/>
      <point x="230" y="0" type="line"/>
      <point x="230" y="374" type="line"/>
      <point x="259" y="292" type="line"/>
      <point x="427" y="0" type="line"/>
      <point x="598" y="0" type="line"/>
      <point x="598" y="710" type="line"/>
    </contour>
  </outline>
</glyph>
<glyph name="O" format="1">
  <advance width="592"/>
  <unicode hex="004F"/>
  <outline>
    <contour>
      <point x="33" y="481" type="curve" smooth="yes"/>
      <point x="30" y="403"/>
      <point x="30" y="302"/>
      <point x="33" y="230" type="curve" smooth="yes"/>
      <point x="40" y="67"/>
      <point x="150" y="-15"/>
      <point x="296" y="-15" type="curve" smooth="yes"/>
      <point x="441" y="-15"/>
      <point x="556" y="67"/>
      <point x="560" y="228" type="curve" smooth="yes"/>
      <point x="562" y="304"/>
      <point x="562" y="415"/>
      <point x="560" y="481" type="curve" smooth="yes"/>
      <point x="555" y="641"/>
      <point x="443" y="725"/>
      <point x="297" y="725" type="curve" smooth="yes"/>
      <point x="151" y="725"/>
      <point x="39" y="641"/>
    </contour>
    <contour>
      <point x="228" y="225" type="curve" smooth="yes"/>
      <point x="224" y="288"/>
      <point x="224" y="429"/>
      <point x="228" y="490" type="curve" smooth="yes"/>
      <point x="231" y="539"/>
      <point x="258" y="560"/>
      <point x="297" y="560" type="curve" smooth="yes"/>
      <point x="336" y="560"/>
      <point x="363" y="539"/>
      <point x="365" y="490" type="curve" smooth="yes"/>
      <point x="368" y="424"/>
      <point x="368" y="283"/>
      <point x="365" y="225" type="curve" smooth="yes"/>
      <point x="362" y="172"/>
      <point x="335" y="150"/>
      <point x="296" y="150" type="curve" smooth="yes"/>
      <point x="257" y="150"/>
      <point x="231" y="172"/>
    </contour>
  </outline>
</glyph>
<glyph name="P" format="1">
  <advance width="570"/>
  <unicode hex="0050"/>
  <outline>
    <contour>
      <point x="245" y="0" type="line"/>
      <point x="245" y="231" type="line"/>
      <point x="245" y="231"/>
      <point x="257" y="229"/>
      <point x="294" y="229" type="curve" smooth="yes"/>
      <point x="461" y="229"/>
      <point x="570" y="325"/>
      <point x="570" y="467" type="curve" smooth="yes"/>
      <point x="570" y="690"/>
      <point x="386" y="711"/>
      <point x="215" y="711" type="curve" smooth="yes"/>
      <point x="131" y="711"/>
      <point x="50" y="710"/>
      <point x="50" y="710" type="curve"/>
      <point x="50" y="0" type="line"/>
    </contour>
    <contour>
      <point x="245" y="545" type="line"/>
      <point x="245" y="545"/>
      <point x="252" y="546"/>
      <point x="267" y="546" type="curve" smooth="yes"/>
      <point x="341" y="546"/>
      <point x="370" y="517"/>
      <point x="370" y="467" type="curve" smooth="yes"/>
      <point x="370" y="405"/>
      <point x="325" y="384"/>
      <point x="274" y="384" type="curve" smooth="yes"/>
      <point x="252" y="384"/>
      <point x="245" y="385"/>
      <point x="245" y="385" type="curve"/>
    </contour>
  </outline>
</glyph>
<glyph name="Q" format="1">
  <advance width="596"/>
  <unicode hex="0051"/>
  <outline>
    <contour>
      <point x="385" y="-126" type="curve" smooth="yes"/>
      <point x="446" y="-167"/>
      <point x="503" y="-194"/>
      <point x="557" y="-194" type="curve" smooth="yes"/>
      <point x="594" y="-194"/>
      <point x="611" y="-171"/>
      <point x="611" y="-171" type="curve"/>
      <point x="611" y="-46" type="line"/>
      <point x="605" y="-47"/>
      <point x="589" y="-47"/>
      <point x="583" y="-47" type="curve" smooth="yes"/>
      <point x="552" y="-47"/>
      <point x="536" y="-42"/>
      <point x="471" y="-29" type="curve" smooth="yes"/>
      <point x="412" y="-17"/>
      <point x="372" y="-8"/>
      <point x="339" y="-8" type="curve"/>
      <point x="297" y="-5" type="line"/>
      <point x="155" y="17" type="line"/>
      <point x="222" y="-15"/>
      <point x="304" y="-72"/>
    </contour>
    <component base="O"/>
  </outline>
</glyph>
<glyph name="R" format="1">
  <advance width="589"/>
  <unicode hex="0052"/>
  <outline>
    <contour>
      <point x="341" y="294" type="line"/>
      <point x="451" y="310"/>
      <point x="566" y="369"/>
      <point x="566" y="513" type="curve" smooth="yes"/>
      <point x="566" y="679"/>
      <point x="430" y="712"/>
      <point x="252" y="712" type="curve" smooth="yes"/>
      <point x="146" y="712"/>
      <point x="55" y="710"/>
      <point x="55" y="710" type="curve"/>
      <point x="55" y="0" type="line"/>
      <point x="250" y="0" type="line"/>
      <point x="250" y="267" type="line"/>
      <point x="326" y="267" type="line"/>
    </contour>
    <contour>
      <point x="367" y="481" type="curve" smooth="yes"/>
      <point x="367" y="415"/>
      <point x="318" y="405"/>
      <point x="272" y="405" type="curve" smooth="yes"/>
      <point x="253" y="405"/>
      <point x="250" y="407"/>
      <point x="250" y="407" type="curve"/>
      <point x="250" y="555" type="line"/>
      <point x="250" y="555"/>
      <point x="247" y="556"/>
      <point x="273" y="556" type="curve" smooth="yes"/>
      <point x="339" y="556"/>
      <point x="367" y="530"/>
    </contour>
    <contour>
      <point x="282" y="267" type="line"/>
      <point x="315" y="191"/>
      <point x="396" y="0"/>
      <point x="396" y="0" type="curve"/>
      <point x="604" y="0" type="line"/>
      <point x="604" y="0"/>
      <point x="530" y="178"/>
      <point x="490" y="260" type="curve" smooth="yes"/>
      <point x="451" y="339"/>
      <point x="410" y="325"/>
      <point x="410" y="325" type="curve"/>
      <point x="405" y="343" type="line"/>
    </contour>
  </outline>
</glyph>
<glyph name="S" format="1">
  <advance width="569"/>
  <unicode hex="0053"/>
  <outline>
    <contour>
      <point x="292" y="150" type="curve" smooth="yes"/>
      <point x="248" y="150"/>
      <point x="211" y="173"/>
      <point x="211" y="235" type="curve"/>
      <point x="31" y="230" type="line"/>
      <point x="23" y="59"/>
      <point x="150" y="-15"/>
      <point x="293" y="-15" type="curve" smooth="yes"/>
      <point x="442" y="-15"/>
      <point x="549" y="67"/>
      <point x="549" y="199" type="curve" smooth="yes"/>
      <point x="549" y="334"/>
      <point x="477" y="382"/>
      <point x="367" y="421" type="curve" smooth="yes"/>
      <point x="251" y="462"/>
      <point x="231" y="480"/>
      <point x="231" y="516" type="curve" smooth="yes"/>
      <point x="231" y="545"/>
      <point x="257" y="560"/>
      <point x="288" y="560" type="curve" smooth="yes"/>
      <point x="330" y="560"/>
      <point x="354" y="534"/>
      <point x="354" y="475" type="curve"/>
      <point x="534" y="480" type="line"/>
      <point x="541" y="653"/>
      <point x="427" y="725"/>
      <point x="290" y="725" type="curve" smooth="yes"/>
      <point x="155" y="725"/>
      <point x="36" y="652"/>
      <point x="36" y="502" type="curve" smooth="yes"/>
      <point x="36" y="378"/>
      <point x="114" y="318"/>
      <point x="218" y="284" type="curve" smooth="yes"/>
      <point x="327" y="248"/>
      <point x="354" y="225"/>
      <point x="354" y="194" type="curve" smooth="yes"/>
      <point x="354" y="164"/>
      <point x="331" y="150"/>
    </contour>
  </outline>
</glyph>
<glyph name="T" format="1">
  <advance width="513"/>
  <unicode hex="0054"/>
  <outline>
    <contour>
      <point x="159" y="0" type="line"/>
      <point x="354" y="0" type="line"/>
      <point x="354" y="545" type="line"/>
      <point x="513" y="545" type="line"/>
      <point x="513" y="710" type="line"/>
      <point x="0" y="710" type="line"/>
      <point x="0" y="545" type="line"/>
      <point x="159" y="545" type="line"/>
    </contour>
  </outline>
</glyph>
<glyph name="U" format="1">
  <advance width="585"/>
  <unicode hex="0055"/>
  <outline>
    <contour>
      <point x="354" y="710" type="line"/>
      <point x="355" y="644"/>
      <point x="356" y="289"/>
      <point x="354" y="231" type="curve" smooth="yes"/>
      <point x="352" y="181"/>
      <point x="333" y="150"/>
      <point x="291" y="150" type="curve" smooth="yes"/>
      <point x="250" y="150"/>
      <point x="226" y="180"/>
      <point x="225" y="231" type="curve" smooth="yes"/>
      <point x="223" y="294"/>
      <point x="224" y="649"/>
      <point x="225" y="710" type="curve"/>
      <point x="39" y="710" type="line"/>
      <point x="39" y="710"/>
      <point x="36" y="439"/>
      <point x="39" y="217" type="curve" smooth="yes"/>
      <point x="41" y="63"/>
      <point x="151" y="-15"/>
      <point x="287" y="-15" type="curve" smooth="yes"/>
      <point x="425" y="-15"/>
      <point x="538" y="65"/>
      <point x="540" y="215" type="curve" smooth="yes"/>
      <point x="543" y="457"/>
      <point x="540" y="710"/>
      <point x="540" y="710" type="curve"/>
    </contour>
  </outline>
</glyph>
<glyph name="V" format="1">
  <advance width="587"/>
  <unicode hex="0056"/>
  <outline>
    <contour>
      <point x="392" y="710" type="line"/>
      <point x="300" y="194" type="line"/>
      <point x="205" y="710" type="line"/>
      <point x="0" y="710" type="line"/>
      <point x="166" y="0" type="line"/>
      <point x="429" y="0" type="line"/>
      <point x="587" y="710" type="line"/>
    </contour>
  </outline>
</glyph>
<glyph name="W" format="1">
  <advance width="857"/>
  <unicode hex="0057"/>
  <outline>
    <contour>
      <point x="598" y="253" type="line"/>
      <point x="595" y="253" type="line"/>
      <point x="580" y="380" type="line"/>
      <point x="519" y="710" type="line"/>
      <point x="347" y="710" type="line"/>
      <point x="291" y="380" type="line"/>
      <point x="278" y="256" type="line"/>
      <point x="275" y="256" type="line"/>
      <point x="262" y="380" type="line"/>
      <point x="215" y="710" type="line"/>
      <point x="10" y="710" type="line"/>
      <point x="148" y="0" type="line"/>
      <point x="360" y="0" type="line"/>
      <point x="417" y="330" type="line"/>
      <point x="430" y="441" type="line"/>
      <point x="432" y="441" type="line"/>
      <point x="445" y="330" type="line"/>
      <point x="505" y="0" type="line"/>
      <point x="709" y="0" type="line"/>
      <point x="847" y="710" type="line"/>
      <point x="652" y="710" type="line"/>
      <point x="610" y="380" type="line"/>
    </contour>
  </outline>
</glyph>
<glyph name="X" format="1">
  <advance width="603"/>
  <unicode hex="0058"/>
  <outline>
    <contour>
      <point x="594" y="710" type="line"/>
      <point x="384" y="710" type="line"/>
      <point x="305" y="516" type="line"/>
      <point x="225" y="710" type="line"/>
      <point x="0" y="710" type="line"/>
      <point x="181" y="367" type="line"/>
      <point x="0" y="0" type="line"/>
      <point x="210" y="0" type="line"/>
      <point x="290" y="219" type="line"/>
      <point x="383" y="0" type="line"/>
      <point x="608" y="0" type="line"/>
      <point x="414" y="363" type="line"/>
    </contour>
  </outline>
</glyph>
<glyph name="Y" format="1">
  <advance width="556"/>
  <unicode hex="0059"/>
  <outline>
    <contour>
      <point x="373" y="0" type="line"/>
      <point x="373" y="264" type="line"/>
      <point x="586" y="710" type="line"/>
      <point x="388" y="710" type="line"/>
      <point x="300" y="505" type="line"/>
      <point x="278" y="436" type="line"/>
      <point x="257" y="505" type="line"/>
      <point x="177" y="710" type="line"/>
      <point x="-30" y="710" type="line"/>
      <point x="178" y="265" type="line"/>
      <point x="178" y="0" type="line"/>
    </contour>
  </outline>
</glyph>
<glyph name="Z" format="1">
  <advance width="522"/>
  <unicode hex="005A"/>
  <outline>
    <contour>
      <point x="15" y="545" type="line"/>
      <point x="269" y="545" type="line"/>
      <point x="10" y="112" type="line"/>
      <point x="16" y="0" type="line"/>
      <point x="512" y="0" type="line"/>
      <point x="512" y="165" type="line"/>
      <point x="250" y="165" type="line"/>
      <point x="508" y="603" type="line"/>
      <point x="501" y="710" type="line"/>
      <point x="15" y="710" type="line"/>
    </contour>
  </outline>
</glyph>
<glyph name="a" format="1">
  <advance width="517"/>
  <unicode hex="0061"/>
  <outline>
    <contour>
      <point x="507" y="125" type="line"/>
      <point x="463" y="125"/>
      <point x="455" y="134"/>
      <point x="455" y="173" type="curve" smooth="yes"/>
      <point x="455" y="331" type="line" smooth="yes"/>
      <point x="455" y="450"/>
      <point x="367" y="510"/>
      <point x="255" y="510" type="curve" smooth="yes"/>
      <point x="127" y="510"/>
      <point x="43" y="437"/>
      <point x="53" y="320" type="curve"/>
      <point x="218" y="325" type="line"/>
      <point x="214" y="353"/>
      <point x="229" y="365"/>
      <point x="248" y="365" type="curve" smooth="yes"/>
      <point x="263" y="365"/>
      <point x="275" y="355"/>
      <point x="275" y="330" type="curve" smooth="yes"/>
      <point x="275" y="296" type="line"/>
      <point x="275" y="296"/>
      <point x="202" y="282"/>
      <point x="135" y="262" type="curve" smooth="yes"/>
      <point x="60" y="240"/>
      <point x="30" y="204"/>
      <point x="30" y="137" type="curve" smooth="yes"/>
      <point x="30" y="48"/>
      <point x="94" y="-15"/>
      <point x="177" y="-15" type="curve" smooth="yes"/>
      <point x="237" y="-15"/>
      <point x="279" y="11"/>
      <point x="309" y="51" type="curve"/>
      <point x="311" y="51" type="line"/>
      <point x="352" y="-30"/>
      <point x="464" y="-16"/>
      <point x="507" y="0" type="curve"/>
    </contour>
    <contour>
      <point x="236" y="206" type="curve" smooth="yes"/>
      <point x="253" y="212"/>
      <point x="275" y="217"/>
      <point x="275" y="217" type="curve"/>
      <point x="275" y="217"/>
      <point x="275" y="173"/>
      <point x="275" y="159" type="curve" smooth="yes"/>
      <point x="275" y="137"/>
      <point x="261" y="125"/>
      <point x="243" y="125" type="curve" smooth="yes"/>
      <point x="224" y="125"/>
      <point x="210" y="137"/>
      <point x="210" y="163" type="curve" smooth="yes"/>
      <point x="210" y="184"/>
      <point x="216" y="199"/>
    </contour>
  </outline>
</glyph>
<glyph name="b" format="1">
  <advance width="509"/>
  <unicode hex="0062"/>
  <outline>
    <contour>
      <point x="220" y="750" type="line"/>
      <point x="40" y="720" type="line"/>
      <point x="40" y="20" type="line"/>
      <point x="40" y="20"/>
      <point x="130" y="-15"/>
      <point x="260" y="-15" type="curve" smooth="yes"/>
      <point x="364" y="-15"/>
      <point x="473" y="47"/>
      <point x="477" y="159" type="curve" smooth="yes"/>
      <point x="479" y="217"/>
      <point x="479" y="307"/>
      <point x="477" y="360" type="curve" smooth="yes"/>
      <point x="474" y="455"/>
      <point x="414" y="510"/>
      <point x="332" y="510" type="curve" smooth="yes"/>
      <point x="256" y="510"/>
      <point x="220" y="465"/>
      <point x="220" y="465" type="curve"/>
    </contour>
    <contour>
      <point x="220" y="318" type="line"/>
      <point x="220" y="344"/>
      <point x="236" y="365"/>
      <point x="263" y="365" type="curve" smooth="yes"/>
      <point x="281" y="365"/>
      <point x="297" y="355"/>
      <point x="297" y="327" type="curve" smooth="yes"/>
      <point x="298" y="270"/>
      <point x="298" y="215"/>
      <point x="297" y="165" type="curve" smooth="yes"/>
      <point x="296" y="142"/>
      <point x="275" y="130"/>
      <point x="258" y="130" type="curve" smooth="yes"/>
      <point x="235" y="130"/>
      <point x="220" y="137"/>
      <point x="220" y="137" type="curve"/>
    </contour>
  </outline>
</glyph>
<glyph name="c" format="1">
  <advance width="468"/>
  <unicode hex="0063"/>
  <outline>
    <contour>
      <point x="445" y="320" type="line"/>
      <point x="454" y="438"/>
      <point x="378" y="510"/>
      <point x="248" y="510" type="curve" smooth="yes"/>
      <point x="134" y="510"/>
      <point x="37" y="444"/>
      <point x="32" y="332" type="curve" smooth="yes"/>
      <point x="30" y="289"/>
      <point x="30" y="225"/>
      <point x="32" y="172" type="curve" smooth="yes"/>
      <point x="36" y="52"/>
      <point x="125" y="-15"/>
      <point x="249" y="-15" type="curve" smooth="yes"/>
      <point x="373" y="-15"/>
      <point x="446" y="67"/>
      <point x="448" y="170" type="curve"/>
      <point x="283" y="175" type="line"/>
      <point x="285" y="149"/>
      <point x="273" y="130"/>
      <point x="249" y="130" type="curve" smooth="yes"/>
      <point x="231" y="130"/>
      <point x="213" y="145"/>
      <point x="212" y="172" type="curve" smooth="yes"/>
      <point x="210" y="226"/>
      <point x="210" y="275"/>
      <point x="212" y="325" type="curve" smooth="yes"/>
      <point x="213" y="352"/>
      <point x="228" y="365"/>
      <point x="248" y="365" type="curve" smooth="yes"/>
      <point x="270" y="365"/>
      <point x="284" y="344"/>
      <point x="280" y="315" type="curve"/>
    </contour>
  </outline>
</glyph>
<glyph name="d" format="1">
  <advance width="533"/>
  <unicode hex="0064"/>
  <outline>
    <contour>
      <point x="286" y="167" type="line"/>
      <point x="286" y="144"/>
      <point x="272" y="130"/>
      <point x="250" y="130" type="curve" smooth="yes"/>
      <point x="228" y="130"/>
      <point x="213" y="144"/>
      <point x="212" y="170" type="curve" smooth="yes"/>
      <point x="210" y="220"/>
      <point x="210" y="277"/>
      <point x="212" y="327" type="curve" smooth="yes"/>
      <point x="213" y="352"/>
      <point x="229" y="365"/>
      <point x="250" y="365" type="curve" smooth="yes"/>
      <point x="268" y="365"/>
      <point x="286" y="353"/>
      <point x="286" y="327" type="curve" smooth="yes"/>
    </contour>
    <contour>
      <point x="518" y="125" type="line"/>
      <point x="474" y="125"/>
      <point x="466" y="134"/>
      <point x="466" y="173" type="curve" smooth="yes"/>
      <point x="466" y="750" type="line"/>
      <point x="286" y="720" type="line"/>
      <point x="286" y="485" type="line"/>
      <point x="286" y="485"/>
      <point x="255" y="510"/>
      <point x="192" y="510" type="curve" smooth="yes"/>
      <point x="111" y="510"/>
      <point x="37" y="452"/>
      <point x="32" y="328" type="curve" smooth="yes"/>
      <point x="30" y="272"/>
      <point x="30" y="201"/>
      <point x="32" y="148" type="curve" smooth="yes"/>
      <point x="37" y="40"/>
      <point x="111" y="-15"/>
      <point x="192" y="-15" type="curve" smooth="yes"/>
      <point x="285" y="-15"/>
      <point x="318" y="49"/>
      <point x="318" y="49" type="curve"/>
      <point x="354" y="-19"/>
      <point x="459" y="-21"/>
      <point x="518" y="0" type="curve"/>
    </contour>
  </outline>
</glyph>
<glyph name="e" format="1">
  <advance width="480"/>
  <unicode hex="0065"/>
  <outline>
    <contour>
      <point x="211" y="172" type="curve" smooth="yes"/>
      <point x="211" y="191"/>
      <point x="211" y="190"/>
      <point x="211" y="203" type="curve" smooth="yes"/>
      <point x="211" y="203"/>
      <point x="283" y="213"/>
      <point x="344" y="226" type="curve" smooth="yes"/>
      <point x="421" y="242"/>
      <point x="455" y="263"/>
      <point x="455" y="333" type="curve" smooth="yes"/>
      <point x="455" y="452"/>
      <point x="362" y="510"/>
      <point x="252" y="510" type="curve" smooth="yes"/>
      <point x="131" y="510"/>
      <point x="36" y="433"/>
      <point x="32" y="317" type="curve" smooth="yes"/>
      <point x="30" y="265"/>
      <point x="30" y="221"/>
      <point x="32" y="172" type="curve" smooth="yes"/>
      <point x="38" y="44"/>
      <point x="136" y="-15"/>
      <point x="247" y="-15" type="curve" smooth="yes"/>
      <point x="359" y="-15"/>
      <point x="445" y="54"/>
      <point x="449" y="165" type="curve"/>
      <point x="284" y="170" type="line"/>
      <point x="283" y="144"/>
      <point x="267" y="130"/>
      <point x="247" y="130" type="curve" smooth="yes"/>
      <point x="225" y="130"/>
      <point x="211" y="146"/>
    </contour>
    <contour>
      <point x="211" y="330" type="line"/>
      <point x="211" y="353"/>
      <point x="225" y="365"/>
      <point x="244" y="365" type="curve" smooth="yes"/>
      <point x="263" y="365"/>
      <point x="275" y="353"/>
      <point x="275" y="328" type="curve" smooth="yes"/>
      <point x="275" y="298"/>
      <point x="268" y="292"/>
      <point x="245" y="287" type="curve" smooth="yes"/>
      <point x="228" y="283"/>
      <point x="211" y="282"/>
      <point x="211" y="282" type="curve"/>
    </contour>
  </outline>
</glyph>
<glyph name="f" format="1">
  <advance width="332"/>
  <unicode hex="0066"/>
  <outline>
    <contour>
      <point x="55" y="495" type="line"/>
      <point x="0" y="495" type="line"/>
      <point x="0" y="370" type="line"/>
      <point x="55" y="370" type="line"/>
      <point x="55" y="0" type="line"/>
      <point x="235" y="0" type="line"/>
      <point x="235" y="370" type="line"/>
      <point x="331" y="370" type="line"/>
      <point x="331" y="495" type="line"/>
      <point x="235" y="495" type="line"/>
      <point x="235" y="552" type="line" smooth="yes"/>
      <point x="235" y="586"/>
      <point x="261" y="600"/>
      <point x="288" y="600" type="curve" smooth="yes"/>
      <point x="314" y="600"/>
      <point x="339" y="595"/>
      <point x="339" y="595" type="curve"/>
      <point x="362" y="723" type="line"/>
      <point x="327" y="743"/>
      <point x="290" y="750"/>
      <point x="248" y="750" type="curve" smooth="yes"/>
      <point x="142" y="750"/>
      <point x="55" y="681"/>
      <point x="55" y="562" type="curve" smooth="yes"/>
    </contour>
  </outline>
</glyph>
<glyph name="g" format="1">
  <advance width="531"/>
  <unicode hex="0067"/>
  <outline>
    <contour>
      <point x="171" y="-21" type="line"/>
      <point x="171" y="-28" type="line"/>
      <point x="122" y="-33" type="line"/>
      <point x="122" y="-33"/>
      <point x="93" y="-38"/>
      <point x="68" y="-45" type="curve" smooth="yes"/>
      <point x="27" y="-57"/>
      <point x="10" y="-73"/>
      <point x="10" y="-113" type="curve" smooth="yes"/>
      <point x="10" y="-213"/>
      <point x="134" y="-265"/>
      <point x="275" y="-265" type="curve" smooth="yes"/>
      <point x="420" y="-265"/>
      <point x="526" y="-194"/>
      <point x="526" y="-71" type="curve" smooth="yes"/>
      <point x="526" y="16"/>
      <point x="467" y="72"/>
      <point x="375" y="91" type="curve" smooth="yes"/>
      <point x="320" y="102"/>
      <point x="256" y="107"/>
      <point x="211" y="115" type="curve" smooth="yes"/>
      <point x="199" y="117"/>
      <point x="193" y="122"/>
      <point x="193" y="135" type="curve" smooth="yes"/>
      <point x="193" y="147"/>
      <point x="208" y="157"/>
      <point x="221" y="158" type="curve"/>
      <point x="134" y="187" type="line"/>
      <point x="84" y="167"/>
      <point x="43" y="137"/>
      <point x="43" y="80" type="curve" smooth="yes"/>
      <point x="43" y="21"/>
      <point x="88" y="-8"/>
      <point x="138" y="-18" type="curve" smooth="yes"/>
      <point x="190" y="-28"/>
      <point x="250" y="-30"/>
      <point x="293" y="-38" type="curve" smooth="yes"/>
      <point x="331" y="-45"/>
      <point x="347" y="-58"/>
      <point x="347" y="-83" type="curve" smooth="yes"/>
      <point x="347" y="-107"/>
      <point x="321" y="-125"/>
      <point x="270" y="-125" type="curve" smooth="yes"/>
      <point x="225" y="-125"/>
      <point x="191" y="-108"/>
      <point x="191" y="-84" type="curve" smooth="yes"/>
      <point x="191" y="-71"/>
      <point x="201" y="-66"/>
      <point x="219" y="-61" type="curve" smooth="yes"/>
      <point x="302" y="-39" type="line"/>
    </contour>
    <contour>
      <point x="267" y="150" type="curve" smooth="yes"/>
      <point x="389" y="150"/>
      <point x="466" y="210"/>
      <point x="466" y="296" type="curve" smooth="yes"/>
      <point x="466" y="344"/>
      <point x="441" y="370"/>
      <point x="411" y="381" type="curve"/>
      <point x="411" y="384" type="line"/>
      <point x="426" y="381"/>
      <point x="481" y="377"/>
      <point x="520" y="375" type="curve"/>
      <point x="523" y="405"/>
      <point x="524" y="466"/>
      <point x="521" y="495" type="curve"/>
      <point x="353" y="495" type="line"/>
      <point x="353" y="495"/>
      <point x="316" y="510"/>
      <point x="264" y="510" type="curve" smooth="yes"/>
      <point x="150" y="510"/>
      <point x="48" y="449"/>
      <point x="48" y="330" type="curve" smooth="yes"/>
      <point x="48" y="196"/>
      <point x="163" y="150"/>
    </contour>
    <contour>
      <point x="264" y="370" type="curve" smooth="yes"/>
      <point x="288" y="370"/>
      <point x="300" y="355"/>
      <point x="300" y="331" type="curve" smooth="yes"/>
      <point x="300" y="305"/>
      <point x="287" y="290"/>
      <point x="264" y="290" type="curve" smooth="yes"/>
      <point x="240" y="290"/>
      <point x="229" y="307"/>
      <point x="229" y="331" type="curve" smooth="yes"/>
      <point x="229" y="358"/>
      <point x="245" y="370"/>
    </contour>
  </outline>
</glyph>
<glyph name="h" format="1">
  <advance width="522"/>
  <unicode hex="0068"/>
  <outline>
    <contour>
      <point x="225" y="750" type="line"/>
      <point x="45" y="720" type="line"/>
      <point x="45" y="0" type="line"/>
      <point x="225" y="0" type="line"/>
    </contour>
    <contour>
      <point x="307" y="0" type="line"/>
      <point x="487" y="0" type="line"/>
      <point x="487" y="341" type="line" smooth="yes"/>
      <point x="487" y="464"/>
      <point x="423" y="510"/>
      <point x="347" y="510" type="curve" smooth="yes"/>
      <point x="291" y="510"/>
      <point x="251" y="484"/>
      <point x="227" y="444" type="curve"/>
      <point x="222" y="444" type="line"/>
      <point x="225" y="320" type="line"/>
      <point x="225" y="330"/>
      <point x="232" y="365"/>
      <point x="270" y="365" type="curve" smooth="yes"/>
      <point x="298" y="365"/>
      <point x="307" y="344"/>
      <point x="307" y="315" type="curve" smooth="yes"/>
    </contour>
  </outline>
</glyph>
<glyph name="i" format="1">
  <advance width="293"/>
  <unicode hex="0069"/>
  <outline>
    <contour>
      <point x="30" y="651" type="curve" smooth="yes"/>
      <point x="30" y="595"/>
      <point x="76" y="555"/>
      <point x="132" y="555" type="curve" smooth="yes"/>
      <point x="189" y="555"/>
      <point x="235" y="595"/>
      <point x="235" y="651" type="curve" smooth="yes"/>
      <point x="235" y="710"/>
      <point x="189" y="750"/>
      <point x="132" y="750" type="curve" smooth="yes"/>
      <point x="76" y="750"/>
      <point x="30" y="710"/>
    </contour>
    <contour>
      <point x="220" y="500" type="line"/>
      <point x="40" y="469" type="line"/>
      <point x="40" y="137" type="line" smooth="yes"/>
      <point x="40" y="-28"/>
      <point x="189" y="-19"/>
      <point x="278" y="0" type="curve"/>
      <point x="278" y="125" type="line"/>
      <point x="244" y="125"/>
      <point x="220" y="130"/>
      <point x="220" y="169" type="curve" smooth="yes"/>
    </contour>
  </outline>
</glyph>
<glyph name="j" format="1">
  <advance width="296"/>
  <unicode hex="006A"/>
  <outline>
    <contour>
      <point x="238" y="500" type="line"/>
      <point x="58" y="469" type="line"/>
      <point x="58" y="-71" type="line" smooth="yes"/>
      <point x="58" y="-110"/>
      <point x="29" y="-125"/>
      <point x="-10" y="-125" type="curve"/>
      <point x="-10" y="-250" type="line"/>
      <point x="82" y="-270"/>
      <point x="238" y="-266"/>
      <point x="238" y="-85" type="curve" smooth="yes"/>
    </contour>
    <contour>
      <point x="46" y="651" type="curve" smooth="yes"/>
      <point x="46" y="595"/>
      <point x="92" y="555"/>
      <point x="148" y="555" type="curve" smooth="yes"/>
      <point x="205" y="555"/>
      <point x="251" y="595"/>
      <point x="251" y="651" type="curve" smooth="yes"/>
      <point x="251" y="710"/>
      <point x="205" y="750"/>
      <point x="148" y="750" type="curve" smooth="yes"/>
      <point x="92" y="750"/>
      <point x="46" y="710"/>
    </contour>
  </outline>
</glyph>
<glyph name="k" format="1">
  <advance width="526"/>
  <unicode hex="006B"/>
  <outline>
    <contour>
      <point x="225" y="750" type="curve"/>
      <point x="45" y="720" type="line"/>
      <point x="45" y="0" type="line"/>
      <point x="225" y="0" type="line"/>
      <point x="225" y="303"/>
      <point x="225" y="200"/>
    </contour>
    <contour>
      <point x="232" y="288" type="line"/>
      <point x="232" y="261" type="line"/>
      <point x="232" y="261"/>
      <point x="270" y="177"/>
      <point x="308" y="93" type="curve" smooth="yes"/>
      <point x="351" y="-1"/>
      <point x="411" y="-15"/>
      <point x="465" y="-15" type="curve" smooth="yes"/>
      <point x="494" y="-15"/>
      <point x="512" y="-7"/>
      <point x="526" y="-1" type="curve"/>
      <point x="526" y="124" type="line"/>
      <point x="498" y="124"/>
      <point x="479" y="132"/>
      <point x="464" y="165" type="curve" smooth="yes"/>
      <point x="409" y="282" type="line"/>
      <point x="450" y="344" type="line" smooth="yes"/>
      <point x="467" y="369"/>
      <point x="481" y="376"/>
      <point x="510" y="376" type="curve"/>
      <point x="510" y="501" type="line"/>
      <point x="510" y="501"/>
      <point x="497" y="510"/>
      <point x="457" y="510" type="curve" smooth="yes"/>
      <point x="391" y="510"/>
      <point x="351" y="478"/>
      <point x="309" y="411" type="curve" smooth="yes"/>
    </contour>
  </outline>
</glyph>
<glyph name="l" format="1">
  <advance width="293"/>
  <unicode hex="006C"/>
  <outline>
    <contour>
      <point x="220" y="750" type="line"/>
      <point x="40" y="720" type="line"/>
      <point x="40" y="137" type="line" smooth="yes"/>
      <point x="40" y="-28"/>
      <point x="189" y="-19"/>
      <point x="278" y="0" type="curve"/>
      <point x="278" y="125" type="line"/>
      <point x="244" y="125"/>
      <point x="220" y="130"/>
      <point x="220" y="169" type="curve" smooth="yes"/>
    </contour>
  </outline>
</glyph>
<glyph name="m" format="1">
  <advance width="775"/>
  <unicode hex="006D"/>
  <outline>
    <contour>
      <point x="239" y="320" type="line"/>
      <point x="239" y="340"/>
      <point x="254" y="365"/>
      <point x="281" y="365" type="curve" smooth="yes"/>
      <point x="300" y="365"/>
      <point x="310" y="352"/>
      <point x="310" y="324" type="curve" smooth="yes"/>
      <point x="310" y="0" type="line"/>
      <point x="490" y="0" type="line"/>
      <point x="490" y="336" type="line" smooth="yes"/>
      <point x="490" y="450"/>
      <point x="426" y="510"/>
      <point x="338" y="510" type="curve" smooth="yes"/>
      <point x="285" y="510"/>
      <point x="241" y="490"/>
      <point x="213" y="443" type="curve"/>
      <point x="208" y="443" type="line"/>
    </contour>
    <contour>
      <point x="490" y="320" type="line"/>
      <point x="490" y="340"/>
      <point x="505" y="365"/>
      <point x="529" y="365" type="curve" smooth="yes"/>
      <point x="551" y="365"/>
      <point x="560" y="351"/>
      <point x="560" y="327" type="curve" smooth="yes"/>
      <point x="560" y="0" type="line"/>
      <point x="740" y="0" type="line"/>
      <point x="740" y="335" type="line" smooth="yes"/>
      <point x="740" y="449"/>
      <point x="687" y="510"/>
      <point x="595" y="510" type="curve" smooth="yes"/>
      <point x="539" y="510"/>
      <point x="497" y="486"/>
      <point x="468" y="442" type="curve"/>
      <point x="462" y="442" type="line"/>
    </contour>
    <contour>
      <point x="240" y="320" type="line"/>
      <point x="240" y="471"/>
      <point x="151" y="505"/>
      <point x="83" y="505" type="curve" smooth="yes"/>
      <point x="43" y="505"/>
      <point x="10" y="490"/>
      <point x="10" y="490" type="curve"/>
      <point x="10" y="370" type="line"/>
      <point x="48" y="370"/>
      <point x="60" y="356"/>
      <point x="60" y="318" type="curve" smooth="yes"/>
      <point x="60" y="0" type="line"/>
      <point x="240" y="0" type="line"/>
    </contour>
  </outline>
</glyph>
<glyph name="n" format="1">
  <advance width="535"/>
  <unicode hex="006E"/>
  <outline>
    <contour>
      <point x="60" y="0" type="line"/>
      <point x="240" y="0" type="line"/>
      <point x="240" y="320" type="line" smooth="yes"/>
      <point x="240" y="471"/>
      <point x="151" y="505"/>
      <point x="83" y="505" type="curve" smooth="yes"/>
      <point x="43" y="505"/>
      <point x="10" y="490"/>
      <point x="10" y="490" type="curve"/>
      <point x="10" y="370" type="line"/>
      <point x="48" y="370"/>
      <point x="60" y="356"/>
      <point x="60" y="318" type="curve" smooth="yes"/>
    </contour>
    <contour>
      <point x="285" y="365" type="curve" smooth="yes"/>
      <point x="307" y="365"/>
      <point x="320" y="350"/>
      <point x="320" y="326" type="curve" smooth="yes"/>
      <point x="320" y="0" type="line"/>
      <point x="500" y="0" type="line"/>
      <point x="500" y="331" type="line" smooth="yes"/>
      <point x="500" y="459"/>
      <point x="432" y="510"/>
      <point x="347" y="510" type="curve" smooth="yes"/>
      <point x="287" y="510"/>
      <point x="241" y="485"/>
      <point x="213" y="440" type="curve"/>
      <point x="209" y="440" type="line"/>
      <point x="240" y="320" type="line"/>
      <point x="240" y="330"/>
      <point x="250" y="365"/>
    </contour>
  </outline>
</glyph>
<glyph name="o" format="1">
  <advance width="497"/>
  <unicode hex="006F"/>
  <outline>
    <contour>
      <point x="465" y="164" type="curve" smooth="yes"/>
      <point x="467" y="220"/>
      <point x="467" y="281"/>
      <point x="465" y="329" type="curve" smooth="yes"/>
      <point x="460" y="439"/>
      <point x="368" y="510"/>
      <point x="249" y="510" type="curve" smooth="yes"/>
      <point x="130" y="510"/>
      <point x="36" y="439"/>
      <point x="32" y="329" type="curve" smooth="yes"/>
      <point x="30" y="272"/>
      <point x="30" y="218"/>
      <point x="32" y="165" type="curve" smooth="yes"/>
      <point x="37" y="54"/>
      <point x="129" y="-15"/>
      <point x="249" y="-15" type="curve" smooth="yes"/>
      <point x="369" y="-15"/>
      <point x="461" y="54"/>
    </contour>
    <contour>
      <point x="285" y="324" type="curve" smooth="yes"/>
      <point x="287" y="275"/>
      <point x="287" y="216"/>
      <point x="285" y="173" type="curve" smooth="yes"/>
      <point x="284" y="147"/>
      <point x="269" y="130"/>
      <point x="249" y="130" type="curve" smooth="yes"/>
      <point x="229" y="130"/>
      <point x="213" y="147"/>
      <point x="212" y="173" type="curve" smooth="yes"/>
      <point x="210" y="219"/>
      <point x="210" y="279"/>
      <point x="212" y="324" type="curve" smooth="yes"/>
      <point x="213" y="347"/>
      <point x="229" y="365"/>
      <point x="249" y="365" type="curve" smooth="yes"/>
      <point x="269" y="365"/>
      <point x="284" y="347"/>
    </contour>
  </outline>
</glyph>
<glyph name="p" format="1">
  <advance width="529"/>
  <unicode hex="0070"/>
  <outline>
    <contour>
      <point x="60" y="-250" type="line"/>
      <point x="240" y="-250" type="line"/>
      <point x="240" y="1" type="line"/>
      <point x="240" y="1"/>
      <point x="270" y="-15"/>
      <point x="318" y="-15" type="curve" smooth="yes"/>
      <point x="418" y="-15"/>
      <point x="493" y="42"/>
      <point x="497" y="168" type="curve" smooth="yes"/>
      <point x="499" y="226"/>
      <point x="499" y="285"/>
      <point x="497" y="338" type="curve" smooth="yes"/>
      <point x="493" y="450"/>
      <point x="431" y="510"/>
      <point x="343" y="510" type="curve" smooth="yes"/>
      <point x="253" y="510"/>
      <point x="209" y="440"/>
      <point x="209" y="440" type="curve"/>
      <point x="163" y="513"/>
      <point x="69" y="510"/>
      <point x="10" y="495" type="curve"/>
      <point x="10" y="370" type="line"/>
      <point x="45" y="370"/>
      <point x="60" y="356"/>
      <point x="60" y="318" type="curve" smooth="yes"/>
    </contour>
    <contour>
      <point x="240" y="318" type="line"/>
      <point x="240" y="343"/>
      <point x="258" y="365"/>
      <point x="282" y="365" type="curve" smooth="yes"/>
      <point x="305" y="365"/>
      <point x="317" y="350"/>
      <point x="317" y="320" type="curve" smooth="yes"/>
      <point x="317" y="170" type="line" smooth="yes"/>
      <point x="317" y="148"/>
      <point x="303" y="130"/>
      <point x="278" y="130" type="curve" smooth="yes"/>
      <point x="256" y="130"/>
      <point x="240" y="146"/>
      <point x="240" y="171" type="curve" smooth="yes"/>
    </contour>
  </outline>
</glyph>
<glyph name="q" format="1">
  <advance width="506"/>
  <unicode hex="0071"/>
  <outline>
    <contour>
      <point x="466" y="473" type="line"/>
      <point x="466" y="473"/>
      <point x="377" y="510"/>
      <point x="251" y="510" type="curve" smooth="yes"/>
      <point x="133" y="510"/>
      <point x="36" y="452"/>
      <point x="32" y="323" type="curve" smooth="yes"/>
      <point x="30" y="262"/>
      <point x="29" y="198"/>
      <point x="32" y="145" type="curve" smooth="yes"/>
      <point x="38" y="42"/>
      <point x="106" y="-15"/>
      <point x="190" y="-15" type="curve" smooth="yes"/>
      <point x="256" y="-15"/>
      <point x="286" y="15"/>
      <point x="286" y="15" type="curve"/>
      <point x="286" y="-250" type="line"/>
      <point x="466" y="-250" type="line"/>
    </contour>
    <contour>
      <point x="286" y="167" type="line"/>
      <point x="286" y="148"/>
      <point x="269" y="130"/>
      <point x="247" y="130" type="curve" smooth="yes"/>
      <point x="227" y="130"/>
      <point x="213" y="145"/>
      <point x="212" y="168" type="curve" smooth="yes"/>
      <point x="210" y="223"/>
      <point x="211" y="275"/>
      <point x="212" y="325" type="curve" smooth="yes"/>
      <point x="213" y="353"/>
      <point x="229" y="365"/>
      <point x="251" y="365" type="curve" smooth="yes"/>
      <point x="263" y="365"/>
      <point x="280" y="364"/>
      <point x="286" y="361" type="curve"/>
    </contour>
  </outline>
</glyph>
<glyph name="r" format="1">
  <advance width="385"/>
  <unicode hex="0072"/>
  <outline>
    <contour>
      <point x="385" y="485" type="line"/>
      <point x="375" y="496"/>
      <point x="353" y="510"/>
      <point x="316" y="510" type="curve" smooth="yes"/>
      <point x="255" y="510"/>
      <point x="215" y="452"/>
      <point x="215" y="389" type="curve"/>
      <point x="211" y="389" type="line"/>
      <point x="217" y="309" type="line"/>
      <point x="240" y="270" type="line"/>
      <point x="240" y="338"/>
      <point x="283" y="351"/>
      <point x="341" y="351" type="curve" smooth="yes"/>
      <point x="352" y="351"/>
      <point x="363" y="351"/>
      <point x="375" y="350" type="curve"/>
    </contour>
    <contour>
      <point x="60" y="0" type="line"/>
      <point x="240" y="0" type="line"/>
      <point x="240" y="296" type="line"/>
      <point x="219" y="310" type="line"/>
      <point x="219" y="475"/>
      <point x="151" y="505"/>
      <point x="83" y="505" type="curve" smooth="yes"/>
      <point x="43" y="505"/>
      <point x="10" y="490"/>
      <point x="10" y="490" type="curve"/>
      <point x="10" y="370" type="line"/>
      <point x="48" y="370"/>
      <point x="60" y="356"/>
      <point x="60" y="318" type="curve" smooth="yes"/>
    </contour>
  </outline>
</glyph>
<glyph name="s" format="1">
  <advance width="454"/>
  <unicode hex="0073"/>
  <outline>
    <contour>
      <point x="426" y="325" type="line"/>
      <point x="437" y="435"/>
      <point x="354" y="510"/>
      <point x="235" y="510" type="curve" smooth="yes"/>
      <point x="117" y="510"/>
      <point x="22" y="447"/>
      <point x="22" y="345" type="curve" smooth="yes"/>
      <point x="22" y="250"/>
      <point x="92" y="223"/>
      <point x="164" y="203" type="curve" smooth="yes"/>
      <point x="226" y="186"/>
      <point x="254" y="184"/>
      <point x="254" y="158" type="curve" smooth="yes"/>
      <point x="254" y="143"/>
      <point x="241" y="130"/>
      <point x="221" y="130" type="curve" smooth="yes"/>
      <point x="200" y="130"/>
      <point x="186" y="147"/>
      <point x="185" y="170" type="curve"/>
      <point x="20" y="165" type="line"/>
      <point x="26" y="40"/>
      <point x="118" y="-15"/>
      <point x="226" y="-15" type="curve" smooth="yes"/>
      <point x="349" y="-15"/>
      <point x="434" y="58"/>
      <point x="434" y="143" type="curve" smooth="yes"/>
      <point x="434" y="246"/>
      <point x="358" y="266"/>
      <point x="272" y="290" type="curve" smooth="yes"/>
      <point x="219" y="305"/>
      <point x="202" y="314"/>
      <point x="202" y="338" type="curve" smooth="yes"/>
      <point x="202" y="357"/>
      <point x="216" y="365"/>
      <point x="231" y="365" type="curve" smooth="yes"/>
      <point x="251" y="365"/>
      <point x="261" y="351"/>
      <point x="261" y="320" type="curve"/>
    </contour>
  </outline>
</glyph>
<glyph name="t" format="1">
  <advance width="377"/>
  <unicode hex="0074"/>
  <outline>
    <contour>
      <point x="244" y="198" type="curve"/>
      <point x="244" y="370" type="line"/>
      <point x="363" y="370" type="line"/>
      <point x="363" y="495" type="line"/>
      <point x="244" y="495" type="line"/>
      <point x="244" y="634" type="line"/>
      <point x="64" y="604" type="line"/>
      <point x="64" y="495" type="line"/>
      <point x="-5" y="495" type="line"/>
      <point x="-5" y="370" type="line"/>
      <point x="64" y="370" type="line"/>
      <point x="64" y="169" type="line" smooth="yes"/>
      <point x="64" y="27"/>
      <point x="165" y="-15"/>
      <point x="263" y="-15" type="curve" smooth="yes"/>
      <point x="300" y="-15"/>
      <point x="346" y="-9"/>
      <point x="372" y="0" type="curve"/>
      <point x="367" y="125" type="line"/>
      <point x="355" y="123"/>
      <point x="331" y="123"/>
      <point x="320" y="123" type="curve" smooth="yes"/>
      <point x="271" y="123"/>
      <point x="244" y="143"/>
    </contour>
  </outline>
</glyph>
<glyph name="u" format="1">
  <advance width="537"/>
  <unicode hex="0075"/>
  <outline>
    <contour>
      <point x="290" y="172" type="line"/>
      <point x="290" y="147"/>
      <point x="276" y="130"/>
      <point x="252" y="130" type="curve" smooth="yes"/>
      <point x="230" y="130"/>
      <point x="215" y="145"/>
      <point x="215" y="181" type="curve" smooth="yes"/>
      <point x="215" y="500" type="line"/>
      <point x="35" y="470" type="line"/>
      <point x="35" y="175" type="line" smooth="yes"/>
      <point x="35" y="44"/>
      <point x="102" y="-15"/>
      <point x="195" y="-15" type="curve" smooth="yes"/>
      <point x="288" y="-15"/>
      <point x="319" y="51"/>
      <point x="319" y="51" type="curve"/>
      <point x="319" y="127" type="line"/>
    </contour>
    <contour>
      <point x="522" y="125" type="line"/>
      <point x="478" y="125"/>
      <point x="470" y="134"/>
      <point x="470" y="173" type="curve" smooth="yes"/>
      <point x="470" y="500" type="line"/>
      <point x="290" y="471" type="line"/>
      <point x="290" y="168" type="line" smooth="yes"/>
      <point x="290" y="154"/>
      <point x="315" y="62"/>
      <point x="317" y="50" type="curve"/>
      <point x="363" y="-15"/>
      <point x="456" y="-22"/>
      <point x="522" y="0" type="curve"/>
    </contour>
  </outline>
</glyph>
<glyph name="v" format="1">
  <advance width="468"/>
  <unicode hex="0076"/>
  <outline>
    <contour>
      <point x="478" y="495" type="line"/>
      <point x="301" y="495" type="line"/>
      <point x="259" y="273" type="line"/>
      <point x="241" y="172" type="line"/>
      <point x="238" y="172" type="line"/>
      <point x="222" y="273" type="line"/>
      <point x="183" y="495" type="line"/>
      <point x="-10" y="495" type="line"/>
      <point x="130" y="0" type="line"/>
      <point x="343" y="0" type="line"/>
    </contour>
  </outline>
</glyph>
<glyph name="w" format="1">
  <advance width="747"/>
  <unicode hex="0077"/>
  <outline>
    <contour>
      <point x="752" y="495" type="line"/>
      <point x="570" y="495" type="line"/>
      <point x="539" y="267" type="line"/>
      <point x="529" y="192" type="line"/>
      <point x="524" y="192" type="line"/>
      <point x="511" y="266" type="line"/>
      <point x="460" y="495" type="line"/>
      <point x="288" y="495" type="line"/>
      <point x="238" y="267" type="line"/>
      <point x="226" y="191" type="line"/>
      <point x="223" y="191" type="line"/>
      <point x="215" y="268" type="line"/>
      <point x="188" y="495" type="line"/>
      <point x="-5" y="495" type="line"/>
      <point x="110" y="0" type="line"/>
      <point x="312" y="0" type="line"/>
      <point x="354" y="193" type="line"/>
      <point x="369" y="302" type="line"/>
      <point x="373" y="302" type="line"/>
      <point x="389" y="193" type="line"/>
      <point x="427" y="0" type="line"/>
      <point x="636" y="0" type="line"/>
    </contour>
  </outline>
</glyph>
<glyph name="x" format="1">
  <advance width="505"/>
  <unicode hex="0078"/>
  <outline>
    <contour>
      <point x="511" y="495" type="line"/>
      <point x="323" y="495" type="line"/>
      <point x="258" y="361" type="line"/>
      <point x="197" y="495" type="line"/>
      <point x="-9" y="495" type="line"/>
      <point x="148" y="247" type="line"/>
      <point x="-10" y="0" type="line"/>
      <point x="175" y="0" type="line"/>
      <point x="244" y="121" type="line"/>
      <point x="311" y="0" type="line"/>
      <point x="515" y="0" type="line"/>
      <point x="364" y="248" type="line"/>
    </contour>
  </outline>
</glyph>
<glyph name="y" format="1">
  <advance width="481"/>
  <unicode hex="0079"/>
  <outline>
    <contour>
      <point x="70" y="-250" type="line"/>
      <point x="250" y="-250" type="line"/>
      <point x="486" y="495" type="line"/>
      <point x="306" y="495" type="line"/>
      <point x="259" y="270" type="line"/>
      <point x="242" y="182" type="line"/>
      <point x="240" y="182" type="line"/>
      <point x="226" y="270" type="line"/>
      <point x="185" y="495" type="line"/>
      <point x="-5" y="495" type="line"/>
      <point x="153" y="5" type="line"/>
    </contour>
  </outline>
</glyph>
<glyph name="z" format="1">
  <advance width="445"/>
  <unicode hex="007A"/>
  <outline>
    <contour>
      <point x="430" y="135" type="line"/>
      <point x="243" y="135" type="line"/>
      <point x="416" y="369" type="line"/>
      <point x="410" y="495" type="line"/>
      <point x="25" y="495" type="line"/>
      <point x="25" y="360" type="line"/>
      <point x="206" y="360" type="line"/>
      <point x="25" y="115" type="line"/>
      <point x="30" y="0" type="line"/>
      <point x="430" y="0" type="line"/>
    </contour>
  </outline>
</glyph>
<glyph name="asciitilde" format="1">
  <advance width="398"/>
  <unicode hex="007E"/>
  <outline>
    <contour>
      <point x="287" y="193" type="curve" smooth="yes"/>
      <point x="375" y="193"/>
      <point x="389" y="295"/>
      <point x="357" y="354" type="curve"/>
      <point x="317" y="367" type="line"/>
      <point x="309" y="349"/>
      <point x="303" y="328"/>
      <point x="286" y="328" type="curve" smooth="yes"/>
      <point x="256" y="328"/>
      <point x="179" y="368"/>
      <point x="115" y="368" type="curve" smooth="yes"/>
      <point x="27" y="368"/>
      <point x="8" y="266"/>
      <point x="40" y="207" type="curve"/>
      <point x="80" y="194" type="line"/>
      <point x="88" y="212"/>
      <point x="99" y="233"/>
      <point x="116" y="233" type="curve" smooth="yes"/>
      <point x="140" y="233"/>
      <point x="234" y="193"/>
    </contour>
  </outline>
</glyph>
<glyph name="yen" format="1">
  <advance width="621"/>
  <unicode hex="00A5"/>
  <outline>
    <contour>
      <point x="69" y="238" type="line"/>
      <point x="541" y="238" type="line"/>
      <point x="541" y="333" type="line"/>
      <point x="69" y="333" type="line"/>
    </contour>
    <contour>
      <point x="69" y="108" type="line"/>
      <point x="541" y="108" type="line"/>
      <point x="541" y="203" type="line"/>
      <point x="69" y="203" type="line"/>
    </contour>
    <component base="Y" xOffset="35"/>
  </outline>
</glyph>
<glyph name="copyright" format="1">
  <advance width="854"/>
  <unicode hex="00A9"/>
  <outline>
    <contour>
      <point x="55" y="327" type="curve" smooth="yes"/>
      <point x="55" y="121"/>
      <point x="221" y="-45"/>
      <point x="427" y="-45" type="curve" smooth="yes"/>
      <point x="634" y="-45"/>
      <point x="800" y="121"/>
      <point x="800" y="327" type="curve" smooth="yes"/>
      <point x="800" y="534"/>
      <point x="634" y="700"/>
      <point x="427" y="700" type="curve" smooth="yes"/>
      <point x="221" y="700"/>
      <point x="55" y="534"/>
    </contour>
    <contour>
      <point x="175" y="328" type="curve" smooth="yes"/>
      <point x="175" y="483"/>
      <point x="279" y="596"/>
      <point x="429" y="596" type="curve" smooth="yes"/>
      <point x="577" y="596"/>
      <point x="680" y="483"/>
      <point x="680" y="328" type="curve" smooth="yes"/>
      <point x="680" y="173"/>
      <point x="577" y="60"/>
      <point x="429" y="60" type="curve" smooth="yes"/>
      <point x="279" y="60"/>
      <point x="175" y="173"/>
    </contour>
    <contour>
      <point x="594" y="382" type="line"/>
      <point x="595" y="473"/>
      <point x="532" y="525"/>
      <point x="432" y="525" type="curve" smooth="yes"/>
      <point x="334" y="525"/>
      <point x="271" y="473"/>
      <point x="265" y="382" type="curve" smooth="yes"/>
      <point x="263" y="345"/>
      <point x="262" y="315"/>
      <point x="265" y="280" type="curve" smooth="yes"/>
      <point x="273" y="181"/>
      <point x="334" y="140"/>
      <point x="429" y="140" type="curve" smooth="yes"/>
      <point x="521" y="140"/>
      <point x="597" y="192"/>
      <point x="599" y="283" type="curve"/>
      <point x="470" y="288" type="line"/>
      <point x="470" y="261"/>
      <point x="457" y="239"/>
      <point x="430" y="239" type="curve" smooth="yes"/>
      <point x="407" y="239"/>
      <point x="395" y="254"/>
      <point x="394" y="279" type="curve" smooth="yes"/>
      <point x="393" y="324"/>
      <point x="393" y="350"/>
      <point x="394" y="389" type="curve" smooth="yes"/>
      <point x="395" y="412"/>
      <point x="406" y="427"/>
      <point x="427" y="427" type="curve" smooth="yes"/>
      <point x="452" y="427"/>
      <point x="464" y="406"/>
      <point x="464" y="377" type="curve"/>
    </contour>
  </outline>
</glyph>
<glyph name="ordfeminine" format="1">
  <advance width="386"/>
  <unicode hex="00AA"/>
  <outline>
    <contour>
      <point x="25" y="180" type="line"/>
      <point x="361" y="180" type="line"/>
      <point x="361" y="310" type="line"/>
      <point x="25" y="310" type="line"/>
    </contour>
    <component base="asuperior"/>
  </outline>
</glyph>
<glyph name="logicalnot" format="1">
  <advance width="520"/>
  <unicode hex="00AC"/>
  <outline>
    <contour>
      <point x="25" y="185" type="line"/>
      <point x="335" y="185" type="line"/>
      <point x="335" y="0" type="line"/>
      <point x="495" y="0" type="line"/>
      <point x="495" y="330" type="line"/>
      <point x="25" y="330" type="line"/>
    </contour>
  </outline>
</glyph>
<glyph name="degree" format="1">
  <advance width="330"/>
  <unicode hex="00B0"/>
  <outline>
    <contour>
      <point x="10" y="530" type="curve" smooth="yes"/>
      <point x="10" y="444"/>
      <point x="79" y="375"/>
      <point x="165" y="375" type="curve" smooth="yes"/>
      <point x="251" y="375"/>
      <point x="320" y="444"/>
      <point x="320" y="530" type="curve" smooth="yes"/>
      <point x="320" y="616"/>
      <point x="251" y="685"/>
      <point x="165" y="685" type="curve" smooth="yes"/>
      <point x="79" y="685"/>
      <point x="10" y="616"/>
    </contour>
    <contour>
      <point x="125" y="530" type="curve" smooth="yes"/>
      <point x="125" y="554"/>
      <point x="141" y="575"/>
      <point x="165" y="575" type="curve" smooth="yes"/>
      <point x="189" y="575"/>
      <point x="205" y="554"/>
      <point x="205" y="530" type="curve" smooth="yes"/>
      <point x="205" y="506"/>
      <point x="189" y="485"/>
      <point x="165" y="485" type="curve" smooth="yes"/>
      <point x="141" y="485"/>
      <point x="125" y="506"/>
    </contour>
  </outline>
</glyph>
<glyph name="plusminus" format="1">
  <advance width="560"/>
  <unicode hex="00B1"/>
  <outline>
    <contour>
      <point x="84" y="120" type="line"/>
      <point x="84" y="-15" type="line"/>
      <point x="474" y="-15" type="line"/>
      <point x="474" y="120" type="line"/>
    </contour>
    <contour>
      <point x="360" y="160" type="line"/>
      <point x="360" y="304" type="line"/>
      <point x="500" y="304" type="line"/>
      <point x="500" y="444" type="line"/>
      <point x="360" y="444" type="line"/>
      <point x="360" y="598" type="line"/>
      <point x="200" y="598" type="line"/>
      <point x="200" y="444" type="line"/>
      <point x="60" y="444" type="line"/>
      <point x="60" y="304" type="line"/>
      <point x="200" y="304" type="line"/>
      <point x="200" y="160" type="line"/>
    </contour>
  </outline>
</glyph>
<glyph name="paragraph" format="1">
  <advance width="569"/>
  <unicode hex="00B6"/>
  <outline>
    <contour>
      <point x="230" y="575" type="line"/>
      <point x="304" y="575" type="line"/>
      <point x="304" y="95" type="line"/>
      <point x="230" y="95" type="line"/>
      <point x="230" y="0" type="line"/>
      <point x="529" y="0" type="line"/>
      <point x="529" y="95" type="line"/>
      <point x="454" y="95" type="line"/>
      <point x="454" y="575" type="line"/>
      <point x="529" y="575" type="line"/>
      <point x="529" y="670" type="line"/>
      <point x="230" y="670" type="line"/>
    </contour>
    <contour>
      <point x="252" y="525" type="line"/>
      <point x="228" y="525" type="line" smooth="yes"/>
      <point x="86" y="525"/>
      <point x="15" y="442"/>
      <point x="15" y="340" type="curve" smooth="yes"/>
      <point x="15" y="240"/>
      <point x="86" y="154"/>
      <point x="228" y="154" type="curve" smooth="yes"/>
      <point x="252" y="154" type="line"/>
    </contour>
  </outline>
</glyph>
<glyph name="cedilla" format="1">
  <advance width="323"/>
  <unicode hex="00B8"/>
  <outline>
    <contour>
      <point x="160" y="-120" type="line"/>
      <point x="177" y="-120"/>
      <point x="186" y="-133"/>
      <point x="186" y="-146" type="curve" smooth="yes"/>
      <point x="186" y="-160"/>
      <point x="178" y="-170"/>
      <point x="164" y="-170" type="curve" smooth="yes"/>
      <point x="145" y="-170"/>
      <point x="137" y="-154"/>
      <point x="137" y="-141" type="curve"/>
      <point x="42" y="-141" type="line"/>
      <point x="37" y="-217"/>
      <point x="98" y="-260"/>
      <point x="165" y="-260" type="curve" smooth="yes"/>
      <point x="235" y="-260"/>
      <point x="291" y="-213"/>
      <point x="291" y="-144" type="curve" smooth="yes"/>
      <point x="291" y="-80"/>
      <point x="241" y="-30"/>
      <point x="160" y="-30" type="curve"/>
    </contour>
  </outline>
</glyph>
<glyph name="onesuperior" format="1">
  <advance width="336"/>
  <unicode hex="00B9"/>
  <outline>
    <contour>
      <point x="112" y="685" type="line"/>
      <point x="112" y="484" type="line"/>
      <point x="40" y="472" type="line"/>
      <point x="40" y="390" type="line"/>
      <point x="321" y="390" type="line"/>
      <point x="321" y="473" type="line"/>
      <point x="247" y="485" type="line"/>
      <point x="247" y="785" type="line"/>
      <point x="189" y="790" type="line"/>
      <point x="40" y="757" type="line"/>
      <point x="46" y="685" type="line"/>
    </contour>
  </outline>
</glyph>
<glyph name="ordmasculine" format="1">
  <advance width="355"/>
  <unicode hex="00BA"/>
  <outline>
    <contour>
      <point x="25" y="180" type="line"/>
      <point x="330" y="180" type="line"/>
      <point x="330" y="310" type="line"/>
      <point x="25" y="310" type="line"/>
    </contour>
    <component base="osuperior" xOffset="3"/>
  </outline>
</glyph>
<glyph name="AE" format="1">
  <advance width="776"/>
  <unicode hex="00C6"/>
  <outline>
    <contour>
      <point x="362" y="0" type="line"/>
      <point x="736" y="0" type="line"/>
      <point x="736" y="165" type="line"/>
      <point x="547" y="165" type="line"/>
      <point x="547" y="280" type="line"/>
      <point x="715" y="280" type="line"/>
      <point x="715" y="440" type="line"/>
      <point x="547" y="440" type="line"/>
      <point x="547" y="545" type="line"/>
      <point x="736" y="545" type="line"/>
      <point x="736" y="710" type="line"/>
      <point x="223" y="710" type="line"/>
      <point x="-15" y="0" type="line"/>
      <point x="185" y="0" type="line"/>
      <point x="362" y="573" type="line"/>
    </contour>
    <contour>
      <point x="367" y="280" type="line"/>
      <point x="259" y="280" type="line"/>
      <point x="258" y="274"/>
      <point x="211" y="120"/>
      <point x="211" y="120" type="curve"/>
      <point x="367" y="120" type="line"/>
    </contour>
  </outline>
</glyph>
<glyph name="Eth" format="1">
  <advance width="606"/>
  <unicode hex="00D0"/>
  <outline>
    <contour>
      <point x="-5" y="285" type="line"/>
      <point x="161" y="280" type="line"/>
      <point x="308" y="285" type="line"/>
      <point x="308" y="418" type="line"/>
      <point x="158" y="423" type="line"/>
      <point x="-5" y="418" type="line"/>
    </contour>
    <component base="D" xOffset="5"/>
  </outline>
</glyph>
<glyph name="Thorn" format="1">
  <advance width="575"/>
  <unicode hex="00DE"/>
  <outline>
    <contour>
      <point x="245" y="710" type="line"/>
      <point x="50" y="710" type="line"/>
      <point x="50" y="0" type="line"/>
      <point x="245" y="0" type="line"/>
      <point x="245" y="131" type="line"/>
      <point x="245" y="131"/>
      <point x="257" y="129"/>
      <point x="294" y="129" type="curve" smooth="yes"/>
      <point x="461" y="129"/>
      <point x="570" y="225"/>
      <point x="570" y="367" type="curve" smooth="yes"/>
      <point x="570" y="577"/>
      <point x="407" y="611"/>
      <point x="245" y="609" type="curve"/>
    </contour>
    <contour>
      <point x="245" y="445" type="line"/>
      <point x="245" y="445"/>
      <point x="252" y="446"/>
      <point x="267" y="446" type="curve" smooth="yes"/>
      <point x="341" y="446"/>
      <point x="370" y="417"/>
      <point x="370" y="367" type="curve" smooth="yes"/>
      <point x="370" y="305"/>
      <point x="325" y="284"/>
      <point x="274" y="284" type="curve" smooth="yes"/>
      <point x="252" y="284"/>
      <point x="245" y="285"/>
      <point x="245" y="285" type="curve"/>
    </contour>
  </outline>
</glyph>
<glyph name="eth" format="1">
  <advance width="507"/>
  <unicode hex="00F0"/>
  <outline>
    <contour>
      <point x="465" y="325" type="line"/>
      <point x="465" y="622"/>
      <point x="264" y="726"/>
      <point x="166" y="740" type="curve"/>
      <point x="54" y="711" type="line"/>
      <point x="142" y="675"/>
      <point x="295" y="580"/>
      <point x="286" y="350" type="curve"/>
    </contour>
    <contour>
      <point x="286" y="302" type="curve" smooth="yes"/>
      <point x="288" y="253"/>
      <point x="287" y="202"/>
      <point x="285" y="159" type="curve" smooth="yes"/>
      <point x="284" y="133"/>
      <point x="265" y="120"/>
      <point x="249" y="120" type="curve" smooth="yes"/>
      <point x="232" y="120"/>
      <point x="213" y="133"/>
      <point x="212" y="159" type="curve" smooth="yes"/>
      <point x="210" y="205"/>
      <point x="210" y="257"/>
      <point x="212" y="302" type="curve" smooth="yes"/>
      <point x="213" y="327"/>
      <point x="229" y="340"/>
      <point x="250" y="340" type="curve" smooth="yes"/>
      <point x="268" y="340"/>
      <point x="285" y="328"/>
    </contour>
    <contour>
      <point x="296" y="440" type="line"/>
      <point x="296" y="440"/>
      <point x="270" y="475"/>
      <point x="197" y="475" type="curve" smooth="yes"/>
      <point x="116" y="475"/>
      <point x="36" y="422"/>
      <point x="32" y="298" type="curve" smooth="yes"/>
      <point x="30" y="241"/>
      <point x="29" y="204"/>
      <point x="32" y="151" type="curve" smooth="yes"/>
      <point x="38" y="43"/>
      <point x="132" y="-15"/>
      <point x="247" y="-15" type="curve" smooth="yes"/>
      <point x="364" y="-15"/>
      <point x="461" y="46"/>
      <point x="465" y="155" type="curve" smooth="yes"/>
      <point x="467" y="211"/>
      <point x="467" y="277"/>
      <point x="465" y="325" type="curve"/>
    </contour>
    <contour>
      <point x="333" y="740" type="line"/>
      <point x="31" y="546" type="line"/>
      <point x="165" y="546" type="line"/>
      <point x="466" y="740" type="line"/>
    </contour>
  </outline>
</glyph>
<glyph name="divide" format="1">
  <advance width="512"/>
  <unicode hex="00F7"/>
  <outline>
    <contour>
      <point x="161" y="447" type="curve" smooth="yes"/>
      <point x="161" y="392"/>
      <point x="203" y="352"/>
      <point x="255" y="352" type="curve" smooth="yes"/>
      <point x="308" y="352"/>
      <point x="350" y="392"/>
      <point x="350" y="447" type="curve" smooth="yes"/>
      <point x="350" y="505"/>
      <point x="308" y="545"/>
      <point x="255" y="545" type="curve" smooth="yes"/>
      <point x="203" y="545"/>
      <point x="161" y="505"/>
    </contour>
    <contour>
      <point x="160" y="55" type="curve" smooth="yes"/>
      <point x="160" y="0"/>
      <point x="202" y="-40"/>
      <point x="254" y="-40" type="curve" smooth="yes"/>
      <point x="307" y="-40"/>
      <point x="349" y="0"/>
      <point x="349" y="55" type="curve" smooth="yes"/>
      <point x="349" y="113"/>
      <point x="307" y="153"/>
      <point x="254" y="153" type="curve" smooth="yes"/>
      <point x="202" y="153"/>
      <point x="160" y="113"/>
    </contour>
    <contour>
      <point x="25" y="180" type="line"/>
      <point x="487" y="180" type="line"/>
      <point x="487" y="325" type="line"/>
      <point x="25" y="325" type="line"/>
    </contour>
  </outline>
</glyph>
<glyph name="oslash" format="1">
  <advance width="507"/>
  <unicode hex="00F8"/>
  <outline>
    <contour>
      <point x="37" y="-15" type="line"/>
      <point x="132" y="-15" type="line"/>
      <point x="179" y="55" type="line"/>
      <point x="200" y="71" type="line"/>
      <point x="224" y="130" type="line"/>
      <point x="304" y="273" type="line"/>
      <point x="371" y="362" type="line"/>
      <point x="390" y="374" type="line"/>
      <point x="482" y="510" type="line"/>
      <point x="387" y="510" type="line"/>
      <point x="326" y="421" type="line"/>
      <point x="304" y="410" type="line"/>
      <point x="285" y="353" type="line"/>
      <point x="200" y="204" type="line"/>
      <point x="135" y="134" type="line"/>
      <point x="123" y="119" type="line"/>
    </contour>
    <component base="o" xOffset="5"/>
  </outline>
</glyph>
<glyph name="thorn" format="1">
  <advance width="514"/>
  <unicode hex="00FE"/>
  <outline>
    <contour>
      <point x="225" y="663" type="line"/>
      <point x="45" y="720" type="line"/>
      <point x="45" y="-250" type="line"/>
      <point x="225" y="-250" type="line"/>
    </contour>
    <contour>
      <point x="482" y="168" type="curve" smooth="yes"/>
      <point x="484" y="226"/>
      <point x="484" y="307"/>
      <point x="482" y="360" type="curve" smooth="yes"/>
      <point x="479" y="455"/>
      <point x="419" y="510"/>
      <point x="337" y="510" type="curve" smooth="yes"/>
      <point x="261" y="510"/>
      <point x="225" y="465"/>
      <point x="225" y="465" type="curve"/>
      <point x="225" y="750" type="line"/>
      <point x="45" y="720" type="line"/>
      <point x="225" y="1" type="line"/>
      <point x="225" y="1"/>
      <point x="255" y="-15"/>
      <point x="303" y="-15" type="curve" smooth="yes"/>
      <point x="403" y="-15"/>
      <point x="478" y="42"/>
    </contour>
    <contour>
      <point x="302" y="170" type="curve" smooth="yes"/>
      <point x="302" y="148"/>
      <point x="288" y="130"/>
      <point x="263" y="130" type="curve" smooth="yes"/>
      <point x="241" y="130"/>
      <point x="225" y="144"/>
      <point x="225" y="171" type="curve" smooth="yes"/>
      <point x="225" y="318" type="line" smooth="yes"/>
      <point x="225" y="344"/>
      <point x="241" y="365"/>
      <point x="268" y="365" type="curve" smooth="yes"/>
      <point x="286" y="365"/>
      <point x="302" y="355"/>
      <point x="302" y="327" type="curve" smooth="yes"/>
      <point x="303" y="270"/>
      <point x="303" y="220"/>
    </contour>
  </outline>
</glyph>
<glyph name="IJ" format="1">
  <advance width="606"/>
  <unicode hex="0132"/>
  <outline>
    <contour>
      <point x="556" y="710" type="line"/>
      <point x="361" y="710" type="line"/>
      <point x="361" y="101" type="line" smooth="yes"/>
      <point x="361" y="45"/>
      <point x="340" y="21"/>
      <point x="306" y="21" type="curve" smooth="yes"/>
      <point x="273" y="21"/>
      <point x="248" y="45"/>
      <point x="245" y="106" type="curve"/>
      <point x="50" y="106" type="line"/>
      <point x="51" y="-45"/>
      <point x="150" y="-144"/>
      <point x="305" y="-144" type="curve" smooth="yes"/>
      <point x="457" y="-144"/>
      <point x="556" y="-51"/>
      <point x="556" y="102" type="curve" smooth="yes"/>
    </contour>
    <contour>
      <point x="245" y="710" type="line"/>
      <point x="50" y="710" type="line"/>
      <point x="50" y="170" type="line"/>
      <point x="245" y="170" type="line"/>
    </contour>
  </outline>
</glyph>
<glyph name="OE" format="1">
  <advance width="804"/>
  <unicode hex="0152"/>
  <outline>
    <contour>
      <point x="33" y="481" type="curve" smooth="yes"/>
      <point x="30" y="403"/>
      <point x="30" y="302"/>
      <point x="33" y="230" type="curve" smooth="yes"/>
      <point x="40" y="67"/>
      <point x="150" y="-15"/>
      <point x="296" y="-15" type="curve" smooth="yes"/>
      <point x="441" y="-15"/>
      <point x="531" y="67"/>
      <point x="535" y="228" type="curve" smooth="yes"/>
      <point x="537" y="304"/>
      <point x="537" y="415"/>
      <point x="535" y="481" type="curve" smooth="yes"/>
      <point x="530" y="641"/>
      <point x="443" y="725"/>
      <point x="297" y="725" type="curve" smooth="yes"/>
      <point x="151" y="725"/>
      <point x="39" y="641"/>
    </contour>
    <contour>
      <point x="228" y="225" type="curve" smooth="yes"/>
      <point x="224" y="288"/>
      <point x="224" y="429"/>
      <point x="228" y="490" type="curve" smooth="yes"/>
      <point x="231" y="539"/>
      <point x="258" y="560"/>
      <point x="297" y="560" type="curve" smooth="yes"/>
      <point x="336" y="560"/>
      <point x="363" y="549"/>
      <point x="365" y="500" type="curve" smooth="yes"/>
      <point x="368" y="434"/>
      <point x="368" y="268"/>
      <point x="365" y="210" type="curve" smooth="yes"/>
      <point x="362" y="157"/>
      <point x="335" y="150"/>
      <point x="296" y="150" type="curve" smooth="yes"/>
      <point x="257" y="150"/>
      <point x="231" y="172"/>
    </contour>
    <contour>
      <point x="350" y="0" type="line"/>
      <point x="764" y="0" type="line"/>
      <point x="764" y="165" type="line"/>
      <point x="540" y="165" type="line"/>
      <point x="540" y="280" type="line"/>
      <point x="743" y="280" type="line"/>
      <point x="743" y="440" type="line"/>
      <point x="540" y="440" type="line"/>
      <point x="540" y="545" type="line"/>
      <point x="764" y="545" type="line"/>
      <point x="764" y="710" type="line"/>
      <point x="350" y="710" type="line"/>
    </contour>
  </outline>
</glyph>
<glyph name="hsuperior" format="1">
  <advance width="359"/>
  <unicode hex="02B0"/>
  <outline>
    <contour>
      <point x="155" y="851" type="line"/>
      <point x="30" y="832" type="line"/>
      <point x="30" y="390" type="line"/>
      <point x="155" y="390" type="line"/>
    </contour>
    <contour>
      <point x="209" y="390" type="line"/>
      <point x="334" y="390" type="line"/>
      <point x="334" y="611" type="line" smooth="yes"/>
      <point x="334" y="691"/>
      <point x="294" y="720"/>
      <point x="240" y="720" type="curve" smooth="yes"/>
      <point x="203" y="720"/>
      <point x="172" y="704"/>
      <point x="157" y="678" type="curve"/>
      <point x="153" y="678" type="line"/>
      <point x="155" y="596" type="line"/>
      <point x="155" y="602"/>
      <point x="160" y="625"/>
      <point x="184" y="625" type="curve" smooth="yes"/>
      <point x="203" y="625"/>
      <point x="209" y="612"/>
      <point x="209" y="593" type="curve" smooth="yes"/>
    </contour>
  </outline>
</glyph>
<glyph name="wsuperior" format="1">
  <advance width="502"/>
  <unicode hex="02B7"/>
  <outline>
    <contour>
      <point x="497" y="710" type="line"/>
      <point x="377" y="710" type="line"/>
      <point x="358" y="565" type="line"/>
      <point x="351" y="512" type="line"/>
      <point x="348" y="512" type="line"/>
      <point x="341" y="565" type="line"/>
      <point x="314" y="710" type="line"/>
      <point x="193" y="710" type="line"/>
      <point x="163" y="565" type="line"/>
      <point x="155" y="511" type="line"/>
      <point x="153" y="511" type="line"/>
      <point x="148" y="566" type="line"/>
      <point x="135" y="710" type="line"/>
      <point x="5" y="710" type="line"/>
      <point x="74" y="390" type="line"/>
      <point x="218" y="390" type="line"/>
      <point x="240" y="514" type="line"/>
      <point x="248" y="585" type="line"/>
      <point x="250" y="585" type="line"/>
      <point x="261" y="514" type="line"/>
      <point x="279" y="390" type="line"/>
      <point x="426" y="390" type="line"/>
    </contour>
  </outline>
</glyph>
<glyph name="dotaccent" format="1">
  <advance width="289"/>
  <unicode hex="02D9"/>
  <outline>
    <contour>
      <point x="50" y="635" type="curve" smooth="yes"/>
      <point x="50" y="583"/>
      <point x="92" y="546"/>
      <point x="144" y="546" type="curve" smooth="yes"/>
      <point x="197" y="546"/>
      <point x="239" y="583"/>
      <point x="239" y="635" type="curve" smooth="yes"/>
      <point x="239" y="689"/>
      <point x="197" y="726"/>
      <point x="144" y="726" type="curve" smooth="yes"/>
      <point x="92" y="726"/>
      <point x="50" y="689"/>
    </contour>
  </outline>
</glyph>
<glyph name="ogonek" format="1">
  <advance width="388"/>
  <unicode hex="02DB"/>
  <outline>
    <contour>
      <point x="338" y="100" type="line"/>
      <point x="338" y="100"/>
      <point x="220" y="36"/>
      <point x="148" y="-4" type="curve" smooth="yes"/>
      <point x="91" y="-36"/>
      <point x="60" y="-72"/>
      <point x="60" y="-139" type="curve" smooth="yes"/>
      <point x="60" y="-288"/>
      <point x="204" y="-279"/>
      <point x="273" y="-260" type="curve"/>
      <point x="273" y="-150" type="line"/>
      <point x="239" y="-150"/>
      <point x="215" y="-145"/>
      <point x="215" y="-106" type="curve" smooth="yes"/>
      <point x="215" y="-87"/>
      <point x="225" y="-76"/>
      <point x="250" y="-59" type="curve" smooth="yes"/>
      <point x="338" y="0" type="line"/>
    </contour>
  </outline>
</glyph>
<glyph name="tilde" format="1">
  <advance width="418"/>
  <unicode hex="02DC"/>
  <outline>
    <contour>
      <point x="287" y="581" type="curve" smooth="yes"/>
      <point x="370" y="581"/>
      <point x="384" y="668"/>
      <point x="352" y="727" type="curve"/>
      <point x="312" y="740" type="line"/>
      <point x="304" y="722"/>
      <point x="303" y="698"/>
      <point x="286" y="698" type="curve" smooth="yes"/>
      <point x="251" y="698"/>
      <point x="204" y="741"/>
      <point x="135" y="741" type="curve" smooth="yes"/>
      <point x="52" y="741"/>
      <point x="33" y="654"/>
      <point x="65" y="595" type="curve"/>
      <point x="105" y="582" type="line"/>
      <point x="113" y="600"/>
      <point x="119" y="624"/>
      <point x="136" y="624" type="curve" smooth="yes"/>
      <point x="165" y="624"/>
      <point x="229" y="581"/>
    </contour>
  </outline>
</glyph>
<glyph name="xsuperior" format="1">
  <advance width="362"/>
  <unicode hex="02E3"/>
  <outline>
    <contour>
      <point x="357" y="710" type="line"/>
      <point x="230" y="710" type="line"/>
      <point x="185" y="628" type="line"/>
      <point x="145" y="710" type="line"/>
      <point x="6" y="710" type="line"/>
      <point x="111" y="551" type="line"/>
      <point x="5" y="390" type="line"/>
      <point x="131" y="390" type="line"/>
      <point x="176" y="464" type="line"/>
      <point x="219" y="390" type="line"/>
      <point x="357" y="390" type="line"/>
      <point x="256" y="551" type="line"/>
    </contour>
  </outline>
</glyph>
<glyph name="Delta" format="1">
  <advance width="697"/>
  <unicode hex="0394"/>
  <unicode hex="2206"/>
  <outline>
    <contour>
      <point x="50" y="0" type="line"/>
      <point x="649" y="0" type="line"/>
      <point x="677" y="106" type="line"/>
      <point x="432" y="710" type="line"/>
      <point x="272" y="710" type="line"/>
      <point x="20" y="106" type="line"/>
    </contour>
    <contour>
      <point x="346" y="478" type="line"/>
      <point x="461" y="160" type="line"/>
      <point x="227" y="160" type="line"/>
    </contour>
  </outline>
</glyph>
<glyph name="endash" format="1">
  <advance width="472"/>
  <unicode hex="2013"/>
  <outline>
    <contour>
      <point x="15" y="180" type="line"/>
      <point x="457" y="180" type="line"/>
      <point x="457" y="325" type="line"/>
      <point x="15" y="325" type="line"/>
    </contour>
  </outline>
</glyph>
<glyph name="emdash" format="1">
  <advance width="586"/>
  <unicode hex="2014"/>
  <outline>
    <contour>
      <point x="15" y="180" type="line"/>
      <point x="571" y="180" type="line"/>
      <point x="571" y="325" type="line"/>
      <point x="15" y="325" type="line"/>
    </contour>
  </outline>
</glyph>
<glyph name="bullet" format="1">
  <advance width="407"/>
  <unicode hex="2022"/>
  <outline>
    <contour>
      <point x="50" y="300" type="curve" smooth="yes"/>
      <point x="50" y="219"/>
      <point x="120" y="150"/>
      <point x="202" y="150" type="curve" smooth="yes"/>
      <point x="286" y="150"/>
      <point x="357" y="219"/>
      <point x="357" y="300" type="curve" smooth="yes"/>
      <point x="357" y="385"/>
      <point x="286" y="455"/>
      <point x="202" y="455" type="curve" smooth="yes"/>
      <point x="120" y="455"/>
      <point x="50" y="385"/>
    </contour>
  </outline>
</glyph>
<glyph name="guilsinglleft" format="1">
  <advance width="327"/>
  <unicode hex="2039"/>
  <outline>
    <contour>
      <point x="193" y="286" type="line"/>
      <point x="322" y="401" type="line"/>
      <point x="240" y="491" type="line"/>
      <point x="15" y="283" type="line"/>
      <point x="15" y="262" type="line"/>
      <point x="234" y="43" type="line"/>
      <point x="319" y="131" type="line"/>
      <point x="193" y="267" type="line"/>
    </contour>
  </outline>
</glyph>
<glyph name="foursuperior" format="1">
  <advance width="383"/>
  <unicode hex="2074"/>
  <outline>
    <contour>
      <point x="192" y="475" type="line"/>
      <point x="192" y="390" type="line"/>
      <point x="322" y="390" type="line"/>
      <point x="322" y="475" type="line"/>
      <point x="373" y="475" type="line"/>
      <point x="373" y="570" type="line"/>
      <point x="322" y="570" type="line"/>
      <point x="322" y="785" type="line"/>
      <point x="258" y="790"/>
      <point x="173" y="790"/>
      <point x="173" y="790" type="curve"/>
      <point x="10" y="544" type="line"/>
      <point x="25" y="475" type="line"/>
    </contour>
    <contour>
      <point x="109" y="570" type="line"/>
      <point x="192" y="693" type="line"/>
      <point x="192" y="570" type="line"/>
    </contour>
  </outline>
</glyph>
<glyph name="eightsuperior" format="1">
  <advance width="381"/>
  <unicode hex="2078"/>
  <outline>
    <contour>
      <point x="163" y="662" type="curve" smooth="yes"/>
      <point x="163" y="681"/>
      <point x="175" y="695"/>
      <point x="191" y="695" type="curve" smooth="yes"/>
      <point x="207" y="695"/>
      <point x="219" y="682"/>
      <point x="219" y="662" type="curve" smooth="yes"/>
      <point x="219" y="639"/>
      <point x="207" y="627"/>
      <point x="191" y="627" type="curve" smooth="yes"/>
      <point x="175" y="627"/>
      <point x="163" y="639"/>
    </contour>
    <contour>
      <point x="160" y="520" type="curve" smooth="yes"/>
      <point x="160" y="546"/>
      <point x="175" y="557"/>
      <point x="191" y="557" type="curve" smooth="yes"/>
      <point x="207" y="557"/>
      <point x="222" y="546"/>
      <point x="222" y="520" type="curve" smooth="yes"/>
      <point x="222" y="494"/>
      <point x="210" y="480"/>
      <point x="191" y="480" type="curve" smooth="yes"/>
      <point x="175" y="480"/>
      <point x="160" y="493"/>
    </contour>
    <contour>
      <point x="356" y="505" type="curve" smooth="yes"/>
      <point x="356" y="544"/>
      <point x="333" y="576"/>
      <point x="295" y="591" type="curve"/>
      <point x="328" y="614"/>
      <point x="354" y="640"/>
      <point x="354" y="674" type="curve" smooth="yes"/>
      <point x="354" y="751"/>
      <point x="284" y="795"/>
      <point x="193" y="795" type="curve" smooth="yes"/>
      <point x="101" y="795"/>
      <point x="28" y="750"/>
      <point x="28" y="670" type="curve" smooth="yes"/>
      <point x="28" y="637"/>
      <point x="52" y="613"/>
      <point x="85" y="591" type="curve"/>
      <point x="47" y="564"/>
      <point x="25" y="542"/>
      <point x="25" y="502" type="curve" smooth="yes"/>
      <point x="25" y="424"/>
      <point x="96" y="380"/>
      <point x="188" y="380" type="curve" smooth="yes"/>
      <point x="282" y="380"/>
      <point x="356" y="425"/>
    </contour>
  </outline>
</glyph>
<glyph name="ninesuperior" format="1">
  <advance width="414"/>
  <unicode hex="2079"/>
  <outline>
    <contour>
      <point x="205" y="614" type="curve" smooth="yes"/>
      <point x="185" y="614"/>
      <point x="170" y="634"/>
      <point x="170" y="660" type="curve" smooth="yes"/>
      <point x="170" y="689"/>
      <point x="185" y="704"/>
      <point x="204" y="704" type="curve" smooth="yes"/>
      <point x="223" y="704"/>
      <point x="240" y="688"/>
      <point x="240" y="658" type="curve" smooth="yes"/>
      <point x="240" y="632"/>
      <point x="224" y="614"/>
    </contour>
    <contour>
      <point x="198" y="479" type="curve" smooth="yes"/>
      <point x="178" y="479"/>
      <point x="168" y="493"/>
      <point x="168" y="511" type="curve"/>
      <point x="38" y="506" type="line"/>
      <point x="43" y="429"/>
      <point x="91" y="380"/>
      <point x="191" y="380" type="curve" smooth="yes"/>
      <point x="316" y="380"/>
      <point x="374" y="474"/>
      <point x="374" y="604" type="curve" smooth="yes"/>
      <point x="374" y="738"/>
      <point x="288" y="794"/>
      <point x="201" y="794" type="curve" smooth="yes"/>
      <point x="93" y="794"/>
      <point x="30" y="736"/>
      <point x="30" y="653" type="curve" smooth="yes"/>
      <point x="30" y="570"/>
      <point x="92" y="534"/>
      <point x="158" y="534" type="curve" smooth="yes"/>
      <point x="188" y="534"/>
      <point x="217" y="539"/>
      <point x="237" y="559" type="curve"/>
      <point x="239" y="516"/>
      <point x="225" y="479"/>
    </contour>
  </outline>
</glyph>
<glyph name="nsuperior" format="1">
  <advance width="380"/>
  <unicode hex="207F"/>
  <outline>
    <contour>
      <point x="48" y="390" type="line"/>
      <point x="173" y="390" type="line"/>
      <point x="173" y="595" type="line" smooth="yes"/>
      <point x="173" y="693"/>
      <point x="120" y="715"/>
      <point x="66" y="715" type="curve" smooth="yes"/>
      <point x="40" y="715"/>
      <point x="15" y="710"/>
      <point x="15" y="710" type="curve"/>
      <point x="15" y="630" type="line"/>
      <point x="40" y="630"/>
      <point x="48" y="620"/>
      <point x="48" y="596" type="curve" smooth="yes"/>
    </contour>
    <contour>
      <point x="202" y="625" type="curve" smooth="yes"/>
      <point x="217" y="625"/>
      <point x="225" y="614"/>
      <point x="225" y="599" type="curve" smooth="yes"/>
      <point x="225" y="390" type="line"/>
      <point x="350" y="390" type="line"/>
      <point x="350" y="604" type="line" smooth="yes"/>
      <point x="350" y="687"/>
      <point x="309" y="720"/>
      <point x="248" y="720" type="curve" smooth="yes"/>
      <point x="209" y="720"/>
      <point x="174" y="704"/>
      <point x="155" y="675" type="curve"/>
      <point x="153" y="675" type="line"/>
      <point x="173" y="595" type="line"/>
      <point x="173" y="601"/>
      <point x="179" y="625"/>
    </contour>
  </outline>
</glyph>
<glyph name="trademark" format="1">
  <advance width="812"/>
  <unicode hex="2122"/>
  <outline>
    <contour>
      <point x="107" y="345" type="line"/>
      <point x="247" y="345" type="line"/>
      <point x="247" y="595" type="line"/>
      <point x="344" y="595" type="line"/>
      <point x="344" y="710" type="line"/>
      <point x="10" y="710" type="line"/>
      <point x="10" y="595" type="line"/>
      <point x="107" y="595" type="line"/>
    </contour>
    <contour>
      <point x="373" y="345" type="line"/>
      <point x="503" y="345" type="line"/>
      <point x="503" y="509" type="line"/>
      <point x="558" y="424" type="line"/>
      <point x="575" y="424" type="line"/>
      <point x="631" y="507" type="line"/>
      <point x="632" y="506" type="line"/>
      <point x="632" y="345" type="line"/>
      <point x="772" y="345" type="line"/>
      <point x="772" y="710" type="line"/>
      <point x="663" y="710" type="line"/>
      <point x="571" y="575" type="line"/>
      <point x="479" y="710" type="line"/>
      <point x="373" y="710" type="line"/>
    </contour>
  </outline>
</glyph>
<glyph name="arrowleft" format="1">
  <advance width="720"/>
  <unicode hex="2190"/>
  <outline>
    <contour>
      <point x="396" y="476" type="line"/>
      <point x="296" y="576" type="line"/>
      <point x="0" y="296" type="line"/>
      <point x="0" y="245" type="line"/>
      <point x="291" y="-43" type="line"/>
      <point x="396" y="53" type="line"/>
      <point x="292" y="156" type="line"/>
      <point x="228" y="186" type="line"/>
      <point x="710" y="183" type="line"/>
      <point x="710" y="351" type="line"/>
      <point x="224" y="349" type="line"/>
      <point x="290" y="380" type="line"/>
    </contour>
  </outline>
</glyph>
<glyph name="arrowup" format="1">
  <advance width="720"/>
  <unicode hex="2191"/>
  <outline>
    <contour>
      <point x="569" y="278" type="line"/>
      <point x="669" y="383" type="line"/>
      <point x="389" y="674" type="line"/>
      <point x="338" y="674" type="line"/>
      <point x="50" y="383" type="line"/>
      <point x="146" y="278" type="line"/>
      <point x="249" y="382" type="line"/>
      <point x="278" y="446" type="line"/>
      <point x="276" y="-36" type="line"/>
      <point x="444" y="-36" type="line"/>
      <point x="443" y="450" type="line"/>
      <point x="473" y="384" type="line"/>
    </contour>
  </outline>
</glyph>
<glyph name="arrowdown" format="1">
  <advance width="720"/>
  <unicode hex="2193"/>
  <outline>
    <contour>
      <point x="152" y="350" type="line"/>
      <point x="50" y="245" type="line"/>
      <point x="330" y="-46" type="line"/>
      <point x="381" y="-46" type="line"/>
      <point x="669" y="245" type="line"/>
      <point x="575" y="350" type="line"/>
      <point x="472" y="246" type="line"/>
      <point x="443" y="182" type="line"/>
      <point x="445" y="664" type="line"/>
      <point x="277" y="664" type="line"/>
      <point x="278" y="178" type="line"/>
      <point x="248" y="244" type="line"/>
    </contour>
  </outline>
</glyph>
<glyph name="arrowupleft" format="1">
  <advance width="720"/>
  <unicode hex="2196"/>
  <outline>
    <contour>
      <point x="236" y="128" type="line"/>
      <point x="95" y="124" type="line"/>
      <point x="83" y="532" type="line"/>
      <point x="120" y="568" type="line"/>
      <point x="529" y="565" type="line"/>
      <point x="535" y="427" type="line"/>
      <point x="384" y="432" type="line"/>
      <point x="323" y="454" type="line"/>
      <point x="670" y="109" type="line"/>
      <point x="552" y="-9" type="line"/>
      <point x="207" y="354" type="line"/>
      <point x="229" y="290" type="line"/>
    </contour>
  </outline>
</glyph>
<glyph name="arrowupright" format="1">
  <advance width="720"/>
  <unicode hex="2197"/>
  <outline>
    <contour>
      <point x="484" y="128" type="line"/>
      <point x="625" y="124" type="line"/>
      <point x="637" y="532" type="line"/>
      <point x="600" y="568" type="line"/>
      <point x="191" y="565" type="line"/>
      <point x="185" y="427" type="line"/>
      <point x="341" y="432" type="line"/>
      <point x="403" y="453" type="line"/>
      <point x="50" y="109" type="line"/>
      <point x="168" y="-9" type="line"/>
      <point x="514" y="349" type="line"/>
      <point x="491" y="286" type="line"/>
    </contour>
  </outline>
</glyph>
<glyph name="partialdiff" format="1">
  <advance width="546"/>
  <unicode hex="2202"/>
  <outline>
    <contour>
      <point x="71" y="577" type="line"/>
      <point x="71" y="577"/>
      <point x="103" y="580"/>
      <point x="141" y="580" type="curve" smooth="yes"/>
      <point x="276" y="580"/>
      <point x="325" y="476"/>
      <point x="334" y="380" type="curve"/>
      <point x="317" y="413"/>
      <point x="277" y="445"/>
      <point x="208" y="445" type="curve" smooth="yes"/>
      <point x="117" y="445"/>
      <point x="25" y="368"/>
      <point x="25" y="220" type="curve" smooth="yes"/>
      <point x="25" y="82"/>
      <point x="113" y="-15"/>
      <point x="248" y="-15" type="curve" smooth="yes"/>
      <point x="440" y="-15"/>
      <point x="516" y="160"/>
      <point x="516" y="326" type="curve" smooth="yes"/>
      <point x="516" y="583"/>
      <point x="380" y="725"/>
      <point x="181" y="725" type="curve" smooth="yes"/>
      <point x="105" y="725"/>
      <point x="62" y="706"/>
      <point x="62" y="706" type="curve"/>
    </contour>
    <contour>
      <point x="268" y="300" type="curve" smooth="yes"/>
      <point x="310" y="300"/>
      <point x="331" y="260"/>
      <point x="331" y="220" type="curve" smooth="yes"/>
      <point x="331" y="156"/>
      <point x="303" y="130"/>
      <point x="266" y="130" type="curve" smooth="yes"/>
      <point x="224" y="130"/>
      <point x="205" y="177"/>
      <point x="205" y="220" type="curve" smooth="yes"/>
      <point x="205" y="265"/>
      <point x="229" y="300"/>
    </contour>
  </outline>
</glyph>
<glyph name="summation" format="1">
  <advance width="499"/>
  <unicode hex="2211"/>
  <outline>
    <contour>
      <point x="26" y="0" type="line"/>
      <point x="489" y="0" type="line"/>
      <point x="489" y="160" type="line"/>
      <point x="260" y="160" type="line"/>
      <point x="430" y="360" type="line"/>
      <point x="260" y="550" type="line"/>
      <point x="489" y="550" type="line"/>
      <point x="489" y="710" type="line"/>
      <point x="29" y="710" type="line"/>
      <point x="20" y="555" type="line"/>
      <point x="216" y="349" type="line"/>
      <point x="20" y="129" type="line"/>
    </contour>
  </outline>
</glyph>
<glyph name="radical" format="1">
  <advance width="680"/>
  <unicode hex="221A"/>
  <outline>
    <contour>
      <point x="705" y="750" type="line"/>
      <point x="548" y="750" type="line"/>
      <point x="351" y="151" type="line"/>
      <point x="260" y="495" type="line"/>
      <point x="10" y="495" type="line"/>
      <point x="10" y="355" type="line"/>
      <point x="103" y="355" type="line"/>
      <point x="217" y="0" type="line"/>
      <point x="440" y="0" type="line"/>
    </contour>
  </outline>
</glyph>
<glyph name="approxequal" format="1">
  <advance width="468"/>
  <unicode hex="2248"/>
  <outline>
    <contour>
      <point x="342" y="85" type="curve" smooth="yes"/>
      <point x="430" y="85"/>
      <point x="444" y="187"/>
      <point x="412" y="246" type="curve"/>
      <point x="372" y="259" type="line"/>
      <point x="364" y="241"/>
      <point x="358" y="220"/>
      <point x="341" y="220" type="curve" smooth="yes"/>
      <point x="311" y="220"/>
      <point x="194" y="260"/>
      <point x="130" y="260" type="curve" smooth="yes"/>
      <point x="42" y="260"/>
      <point x="23" y="158"/>
      <point x="55" y="99" type="curve"/>
      <point x="95" y="86" type="line"/>
      <point x="103" y="104"/>
      <point x="114" y="125"/>
      <point x="131" y="125" type="curve" smooth="yes"/>
      <point x="155" y="125"/>
      <point x="289" y="85"/>
    </contour>
    <contour>
      <point x="342" y="281" type="curve" smooth="yes"/>
      <point x="430" y="281"/>
      <point x="444" y="383"/>
      <point x="412" y="442" type="curve"/>
      <point x="372" y="455" type="line"/>
      <point x="364" y="437"/>
      <point x="358" y="416"/>
      <point x="341" y="416" type="curve" smooth="yes"/>
      <point x="311" y="416"/>
      <point x="194" y="456"/>
      <point x="130" y="456" type="curve" smooth="yes"/>
      <point x="42" y="456"/>
      <point x="23" y="354"/>
      <point x="55" y="295" type="curve"/>
      <point x="95" y="282" type="line"/>
      <point x="103" y="300"/>
      <point x="114" y="321"/>
      <point x="131" y="321" type="curve" smooth="yes"/>
      <point x="155" y="321"/>
      <point x="289" y="281"/>
    </contour>
  </outline>
</glyph>
<glyph name="notequal" format="1">
  <advance width="512"/>
  <unicode hex="2260"/>
  <outline>
    <contour>
      <point x="460" y="520" type="line"/>
      <point x="318" y="520" type="line"/>
      <point x="68" y="-15" type="line"/>
      <point x="212" y="-15" type="line"/>
    </contour>
    <component base="equal"/>
  </outline>
</glyph>
<glyph name="lessequal" format="1">
  <advance width="511"/>
  <unicode hex="2264"/>
  <outline>
    <contour>
      <point x="37" y="0" type="line"/>
      <point x="484" y="0" type="line"/>
      <point x="484" y="120" type="line"/>
      <point x="37" y="120" type="line"/>
    </contour>
    <component base="less" yOffset="168"/>
  </outline>
</glyph>
<glyph name="uni2463" format="1">
  <advance width="775"/>
  <unicode hex="2463"/>
  <outline>
    <contour>
      <point x="50" y="330" type="curve" smooth="yes"/>
      <point x="50" y="146"/>
      <point x="199" y="-15"/>
      <point x="388" y="-15" type="curve" smooth="yes"/>
      <point x="576" y="-15"/>
      <point x="725" y="146"/>
      <point x="725" y="330" type="curve" smooth="yes"/>
      <point x="725" y="514"/>
      <point x="576" y="675"/>
      <point x="388" y="675" type="curve" smooth="yes"/>
      <point x="199" y="675"/>
      <point x="50" y="514"/>
    </contour>
    <contour>
      <point x="197" y="230" type="line"/>
      <point x="182" y="294" type="line"/>
      <point x="345" y="545" type="line"/>
      <point x="345" y="545"/>
      <point x="430" y="545"/>
      <point x="494" y="540" type="curve"/>
      <point x="494" y="325" type="line"/>
      <point x="545" y="325" type="line"/>
      <point x="545" y="230" type="line"/>
      <point x="494" y="230" type="line"/>
      <point x="494" y="145" type="line"/>
      <point x="364" y="145" type="line"/>
      <point x="364" y="230" type="line"/>
    </contour>
    <contour>
      <point x="364" y="325" type="line"/>
      <point x="364" y="448" type="line"/>
      <point x="281" y="325" type="line"/>
    </contour>
  </outline>
</glyph>
<glyph name="uni2464" format="1">
  <advance width="775"/>
  <unicode hex="2464"/>
  <outline>
    <contour>
      <point x="50" y="330" type="curve" smooth="yes"/>
      <point x="50" y="146"/>
      <point x="199" y="-15"/>
      <point x="388" y="-15" type="curve" smooth="yes"/>
      <point x="576" y="-15"/>
      <point x="725" y="146"/>
      <point x="725" y="330" type="curve" smooth="yes"/>
      <point x="725" y="514"/>
      <point x="576" y="675"/>
      <point x="388" y="675" type="curve" smooth="yes"/>
      <point x="199" y="675"/>
      <point x="50" y="514"/>
    </contour>
    <contour>
      <point x="544" y="274" type="curve" smooth="yes"/>
      <point x="544" y="188"/>
      <point x="472" y="134"/>
      <point x="383" y="134" type="curve" smooth="yes"/>
      <point x="296" y="134"/>
      <point x="235" y="174"/>
      <point x="228" y="264" type="curve"/>
      <point x="357" y="269" type="line"/>
      <point x="357" y="248"/>
      <point x="363" y="234"/>
      <point x="382" y="234" type="curve" smooth="yes"/>
      <point x="400" y="234"/>
      <point x="409" y="255"/>
      <point x="409" y="279" type="curve" smooth="yes"/>
      <point x="409" y="310"/>
      <point x="401" y="321"/>
      <point x="383" y="321" type="curve" smooth="yes"/>
      <point x="372" y="321"/>
      <point x="362" y="313"/>
      <point x="358" y="304" type="curve"/>
      <point x="244" y="309" type="line"/>
      <point x="266" y="539" type="line"/>
      <point x="514" y="539" type="line"/>
      <point x="514" y="439" type="line"/>
      <point x="380" y="439" type="line"/>
      <point x="372" y="390" type="line"/>
      <point x="372" y="390"/>
      <point x="390" y="401"/>
      <point x="415" y="401" type="curve" smooth="yes"/>
      <point x="475" y="401"/>
      <point x="544" y="365"/>
    </contour>
  </outline>
</glyph>
<glyph name="uni2465" format="1">
  <advance width="775"/>
  <unicode hex="2465"/>
  <outline>
    <contour>
      <point x="50" y="330" type="curve" smooth="yes"/>
      <point x="50" y="146"/>
      <point x="199" y="-15"/>
      <point x="388" y="-15" type="curve" smooth="yes"/>
      <point x="576" y="-15"/>
      <point x="725" y="146"/>
      <point x="725" y="330" type="curve" smooth="yes"/>
      <point x="725" y="514"/>
      <point x="576" y="675"/>
      <point x="388" y="675" type="curve" smooth="yes"/>
      <point x="199" y="675"/>
      <point x="50" y="514"/>
    </contour>
    <contour>
      <point x="380" y="315" type="curve" smooth="yes"/>
      <point x="361" y="315"/>
      <point x="345" y="300"/>
      <point x="345" y="274" type="curve" smooth="yes"/>
      <point x="345" y="245"/>
      <point x="361" y="227"/>
      <point x="380" y="227" type="curve" smooth="yes"/>
      <point x="399" y="227"/>
      <point x="415" y="243"/>
      <point x="415" y="269" type="curve" smooth="yes"/>
      <point x="415" y="299"/>
      <point x="400" y="315"/>
    </contour>
    <contour>
      <point x="386" y="452" type="curve" smooth="yes"/>
      <point x="359" y="452"/>
      <point x="348" y="415"/>
      <point x="348" y="367" type="curve"/>
      <point x="369" y="386"/>
      <point x="397" y="395"/>
      <point x="427" y="395" type="curve" smooth="yes"/>
      <point x="493" y="395"/>
      <point x="555" y="364"/>
      <point x="555" y="281" type="curve" smooth="yes"/>
      <point x="555" y="198"/>
      <point x="485" y="137"/>
      <point x="382" y="137" type="curve" smooth="yes"/>
      <point x="295" y="137"/>
      <point x="211" y="193"/>
      <point x="211" y="327" type="curve" smooth="yes"/>
      <point x="211" y="462"/>
      <point x="266" y="552"/>
      <point x="391" y="552" type="curve" smooth="yes"/>
      <point x="491" y="552"/>
      <point x="542" y="507"/>
      <point x="542" y="425" type="curve"/>
      <point x="412" y="420" type="line"/>
      <point x="412" y="446"/>
      <point x="401" y="452"/>
    </contour>
  </outline>
</glyph>
<glyph name="lozenge" format="1">
  <advance width="607"/>
  <unicode hex="25CA"/>
  <outline>
    <contour>
      <point x="389" y="0" type="line"/>
      <point x="567" y="330" type="line"/>
      <point x="389" y="670" type="line"/>
      <point x="219" y="670" type="line"/>
      <point x="40" y="330" type="line"/>
      <point x="219" y="0" type="line"/>
    </contour>
    <contour>
      <point x="225" y="330" type="line"/>
      <point x="304" y="503" type="line"/>
      <point x="382" y="330" type="line"/>
      <point x="304" y="164" type="line"/>
    </contour>
  </outline>
</glyph>
<glyph name="ff" format="1">
  <advance width="661"/>
  <unicode hex="FB00"/>
  <outline>
    <contour>
      <point x="55" y="495" type="line"/>
      <point x="0" y="495" type="line"/>
      <point x="0" y="370" type="line"/>
      <point x="55" y="370" type="line"/>
      <point x="55" y="0" type="line"/>
      <point x="235" y="0" type="line"/>
      <point x="235" y="370" type="line"/>
      <point x="331" y="370" type="line"/>
      <point x="331" y="495" type="line"/>
      <point x="235" y="495" type="line"/>
      <point x="235" y="547" type="line" smooth="yes"/>
      <point x="235" y="581"/>
      <point x="261" y="595"/>
      <point x="288" y="595" type="curve" smooth="yes"/>
      <point x="314" y="595"/>
      <point x="334" y="590"/>
      <point x="334" y="590" type="curve"/>
      <point x="357" y="715" type="line"/>
      <point x="325" y="736"/>
      <point x="290" y="745"/>
      <point x="248" y="745" type="curve" smooth="yes"/>
      <point x="142" y="745"/>
      <point x="55" y="676"/>
      <point x="55" y="557" type="curve" smooth="yes"/>
    </contour>
    <contour>
      <point x="384" y="495" type="line"/>
      <point x="329" y="495" type="line"/>
      <point x="329" y="370" type="line"/>
      <point x="384" y="370" type="line"/>
      <point x="384" y="0" type="line"/>
      <point x="564" y="0" type="line"/>
      <point x="564" y="370" type="line"/>
      <point x="660" y="370" type="line"/>
      <point x="660" y="495" type="line"/>
      <point x="564" y="495" type="line"/>
      <point x="564" y="552" type="line" smooth="yes"/>
      <point x="564" y="586"/>
      <point x="590" y="600"/>
      <point x="617" y="600" type="curve" smooth="yes"/>
      <point x="643" y="600"/>
      <point x="668" y="595"/>
      <point x="668" y="595" type="curve"/>
      <point x="691" y="720" type="line"/>
      <point x="665" y="742"/>
      <point x="619" y="750"/>
      <point x="577" y="750" type="curve" smooth="yes"/>
      <point x="471" y="750"/>
      <point x="384" y="681"/>
      <point x="384" y="562" type="curve" smooth="yes"/>
    </contour>
  </outline>
</glyph>
<glyph name="ffi" format="1">
  <advance width="945"/>
  <unicode hex="FB03"/>
  <outline>
    <contour>
      <point x="55" y="495" type="line"/>
      <point x="0" y="495" type="line"/>
      <point x="0" y="370" type="line"/>
      <point x="55" y="370" type="line"/>
      <point x="55" y="0" type="line"/>
      <point x="235" y="0" type="line"/>
      <point x="235" y="370" type="line"/>
      <point x="331" y="370" type="line"/>
      <point x="331" y="495" type="line"/>
      <point x="235" y="495" type="line"/>
      <point x="235" y="547" type="line" smooth="yes"/>
      <point x="235" y="581"/>
      <point x="261" y="595"/>
      <point x="288" y="595" type="curve" smooth="yes"/>
      <point x="314" y="595"/>
      <point x="334" y="590"/>
      <point x="334" y="590" type="curve"/>
      <point x="367" y="715" type="line"/>
      <point x="330" y="736"/>
      <point x="290" y="745"/>
      <point x="248" y="745" type="curve" smooth="yes"/>
      <point x="142" y="745"/>
      <point x="55" y="676"/>
      <point x="55" y="557" type="curve" smooth="yes"/>
    </contour>
    <component base="fi" xOffset="330"/>
  </outline>
</glyph>
<glyph name="ffl" format="1">
  <advance width="946"/>
  <unicode hex="FB04"/>
  <outline>
    <contour>
      <point x="385" y="495" type="line"/>
      <point x="330" y="495" type="line"/>
      <point x="330" y="370" type="line"/>
      <point x="385" y="370" type="line"/>
      <point x="385" y="0" type="line"/>
      <point x="565" y="0" type="line"/>
      <point x="565" y="370" type="line"/>
      <point x="641" y="370" type="line"/>
      <point x="641" y="495" type="line"/>
      <point x="565" y="495" type="line"/>
      <point x="565" y="532" type="line" smooth="yes"/>
      <point x="565" y="581"/>
      <point x="596" y="600"/>
      <point x="633" y="600" type="curve" smooth="yes"/>
      <point x="668" y="600"/>
      <point x="693" y="586"/>
      <point x="693" y="586" type="curve"/>
      <point x="727" y="720" type="line"/>
      <point x="690" y="741"/>
      <point x="655" y="750"/>
      <point x="598" y="750" type="curve" smooth="yes"/>
      <point x="482" y="750"/>
      <point x="385" y="666"/>
      <point x="385" y="537" type="curve" smooth="yes"/>
    </contour>
    <contour>
      <point x="55" y="495" type="line"/>
      <point x="0" y="495" type="line"/>
      <point x="0" y="370" type="line"/>
      <point x="55" y="370" type="line"/>
      <point x="55" y="0" type="line"/>
      <point x="235" y="0" type="line"/>
      <point x="235" y="370" type="line"/>
      <point x="331" y="370" type="line"/>
      <point x="331" y="495" type="line"/>
      <point x="235" y="495" type="line"/>
      <point x="235" y="547" type="line" smooth="yes"/>
      <point x="235" y="581"/>
      <point x="261" y="595"/>
      <point x="288" y="595" type="curve" smooth="yes"/>
      <point x="314" y="595"/>
      <point x="334" y="590"/>
      <point x="334" y="590" type="curve"/>
      <point x="362" y="715" type="line"/>
      <point x="330" y="736"/>
      <point x="290" y="745"/>
      <point x="248" y="745" type="curve" smooth="yes"/>
      <point x="142" y="745"/>
      <point x="55" y="676"/>
      <point x="55" y="557" type="curve" smooth="yes"/>
    </contour>
    <component base="l" xOffset="653"/>
  </outline>
</glyph>
<glyph name="st" format="1">
  <advance width="840"/>
  <unicode hex="FB06"/>
  <outline>
    <contour>
      <point x="527" y="495" type="line"/>
      <point x="458" y="495" type="line"/>
      <point x="458" y="370" type="line"/>
      <point x="527" y="370" type="line"/>
      <point x="527" y="169" type="line" smooth="yes"/>
      <point x="527" y="27"/>
      <point x="628" y="-15"/>
      <point x="726" y="-15" type="curve" smooth="yes"/>
      <point x="763" y="-15"/>
      <point x="809" y="-9"/>
      <point x="835" y="0" type="curve"/>
      <point x="830" y="125" type="line"/>
      <point x="818" y="123"/>
      <point x="794" y="123"/>
      <point x="783" y="123" type="curve" smooth="yes"/>
      <point x="734" y="123"/>
      <point x="707" y="143"/>
      <point x="707" y="198" type="curve" smooth="yes"/>
      <point x="707" y="370" type="line"/>
      <point x="826" y="370" type="line"/>
      <point x="826" y="495" type="line"/>
      <point x="707" y="495" type="line"/>
      <point x="707" y="530" type="line" smooth="yes"/>
      <point x="707" y="671"/>
      <point x="621" y="750"/>
      <point x="495" y="750" type="curve" smooth="yes"/>
      <point x="380" y="750"/>
      <point x="281" y="682"/>
      <point x="281" y="567" type="curve" smooth="yes"/>
      <point x="281" y="554"/>
      <point x="282" y="544"/>
      <point x="285" y="529" type="curve"/>
      <point x="285" y="529"/>
      <point x="344" y="521"/>
      <point x="388" y="491" type="curve"/>
      <point x="384" y="500"/>
      <point x="382" y="517"/>
      <point x="382" y="534" type="curve" smooth="yes"/>
      <point x="382" y="584"/>
      <point x="415" y="610"/>
      <point x="454" y="610" type="curve" smooth="yes"/>
      <point x="492" y="610"/>
      <point x="527" y="585"/>
      <point x="527" y="533" type="curve" smooth="yes"/>
    </contour>
    <component base="s"/>
  </outline>
</glyph>
<glyph name="A.small" format="1">
  <advance width="527"/>
  <outline>
    <contour>
      <point x="332" y="0" type="line"/>
      <point x="522" y="0" type="line"/>
      <point x="396" y="550" type="line"/>
      <point x="121" y="550" type="line"/>
      <point x="120" y="508" type="line"/>
      <point x="5" y="0" type="line"/>
      <point x="179" y="0" type="line"/>
      <point x="258" y="424" type="line"/>
      <point x="262" y="424" type="line"/>
    </contour>
    <contour>
      <point x="323" y="70" type="line"/>
      <point x="323" y="70"/>
      <point x="303" y="218"/>
      <point x="300" y="215" type="curve"/>
      <point x="211" y="215" type="line"/>
      <point x="211" y="212"/>
      <point x="188" y="70"/>
      <point x="188" y="70" type="curve"/>
    </contour>
  </outline>
</glyph>
<glyph name="B.small" format="1">
  <advance width="528"/>
  <outline>
    <contour>
      <point x="50" y="0" type="line"/>
      <point x="291" y="0" type="line" smooth="yes"/>
      <point x="428" y="0"/>
      <point x="503" y="76"/>
      <point x="503" y="153" type="curve" smooth="yes"/>
      <point x="503" y="218"/>
      <point x="459" y="268"/>
      <point x="399" y="280" type="curve"/>
      <point x="399" y="283" type="line"/>
      <point x="443" y="294"/>
      <point x="501" y="334"/>
      <point x="501" y="406" type="curve" smooth="yes"/>
      <point x="501" y="545"/>
      <point x="334" y="551"/>
      <point x="212" y="551" type="curve" smooth="yes"/>
      <point x="125" y="551"/>
      <point x="50" y="550"/>
      <point x="50" y="550" type="curve"/>
    </contour>
    <contour>
      <point x="230" y="225" type="line"/>
      <point x="233" y="225"/>
      <point x="248" y="226"/>
      <point x="260" y="226" type="curve" smooth="yes"/>
      <point x="308" y="226"/>
      <point x="318" y="206"/>
      <point x="318" y="187" type="curve" smooth="yes"/>
      <point x="318" y="155"/>
      <point x="295" y="144"/>
      <point x="263" y="144" type="curve" smooth="yes"/>
      <point x="246" y="144"/>
      <point x="235" y="145"/>
      <point x="230" y="145" type="curve"/>
    </contour>
    <contour>
      <point x="230" y="405" type="line"/>
      <point x="235" y="405"/>
      <point x="243" y="406"/>
      <point x="257" y="406" type="curve" smooth="yes"/>
      <point x="303" y="406"/>
      <point x="313" y="384"/>
      <point x="313" y="365" type="curve" smooth="yes"/>
      <point x="313" y="335"/>
      <point x="291" y="324"/>
      <point x="257" y="324" type="curve" smooth="yes"/>
      <point x="245" y="324"/>
      <point x="235" y="325"/>
      <point x="230" y="325" type="curve"/>
    </contour>
  </outline>
</glyph>
<glyph name="E.small" format="1">
  <advance width="443"/>
  <outline>
    <contour>
      <point x="50" y="0" type="line"/>
      <point x="406" y="0" type="line"/>
      <point x="406" y="150" type="line"/>
      <point x="235" y="150" type="line"/>
      <point x="235" y="205" type="line"/>
      <point x="395" y="205" type="line"/>
      <point x="395" y="345" type="line"/>
      <point x="235" y="345" type="line"/>
      <point x="235" y="400" type="line"/>
      <point x="408" y="400" type="line"/>
      <point x="408" y="550" type="line"/>
      <point x="50" y="550" type="line"/>
    </contour>
  </outline>
</glyph>
<glyph name="Eth.small" format="1">
  <advance width="535"/>
  <outline>
    <contour>
      <point x="20" y="210" type="line"/>
      <point x="147" y="205" type="line"/>
      <point x="283" y="210" type="line"/>
      <point x="283" y="328" type="line"/>
      <point x="154" y="333" type="line"/>
      <point x="20" y="328" type="line"/>
    </contour>
    <component base="D.small" xOffset="15"/>
  </outline>
</glyph>
<glyph name="F.small" format="1">
  <advance width="423"/>
  <outline>
    <contour>
      <point x="235" y="0" type="line"/>
      <point x="235" y="165" type="line"/>
      <point x="390" y="165" type="line"/>
      <point x="390" y="315" type="line"/>
      <point x="235" y="315" type="line"/>
      <point x="235" y="400" type="line"/>
      <point x="403" y="400" type="line"/>
      <point x="403" y="550" type="line"/>
      <point x="50" y="550" type="line"/>
      <point x="50" y="0" type="line"/>
    </contour>
  </outline>
</glyph>
<glyph name="F_J" format="1">
  <advance width="841"/>
  <outline>
    <contour>
      <point x="50" y="0" type="line"/>
      <point x="245" y="0" type="line"/>
      <point x="245" y="260" type="line"/>
      <point x="491" y="260" type="line"/>
      <point x="491" y="420" type="line"/>
      <point x="245" y="420" type="line"/>
      <point x="245" y="545" type="line"/>
      <point x="496" y="545" type="line"/>
      <point x="496" y="710" type="line"/>
      <point x="50" y="710" type="line"/>
    </contour>
    <contour>
      <point x="606" y="725" type="line"/>
      <point x="606" y="230" type="line" smooth="yes"/>
      <point x="606" y="174"/>
      <point x="585" y="150"/>
      <point x="551" y="150" type="curve" smooth="yes"/>
      <point x="519" y="150"/>
      <point x="493" y="172"/>
      <point x="490" y="220" type="curve"/>
      <point x="320" y="220" type="line"/>
      <point x="311" y="62"/>
      <point x="415" y="-15"/>
      <point x="555" y="-15" type="curve" smooth="yes"/>
      <point x="687" y="-15"/>
      <point x="801" y="65"/>
      <point x="801" y="230" type="curve" smooth="yes"/>
      <point x="801" y="725" type="line"/>
    </contour>
  </outline>
</glyph>
<glyph name="IJ.small" format="1">
  <advance width="545"/>
  <outline>
    <contour>
      <point x="315" y="550" type="line"/>
      <point x="315" y="30" type="line" smooth="yes"/>
      <point x="315" y="-1"/>
      <point x="302" y="-21"/>
      <point x="272" y="-21" type="curve" smooth="yes"/>
      <point x="246" y="-21"/>
      <point x="227" y="4"/>
      <point x="230" y="44" type="curve"/>
      <point x="45" y="44" type="line"/>
      <point x="57" y="-85"/>
      <point x="140" y="-171"/>
      <point x="272" y="-171" type="curve" smooth="yes"/>
      <point x="428" y="-171"/>
      <point x="500" y="-75"/>
      <point x="500" y="63" type="curve" smooth="yes"/>
      <point x="500" y="550" type="line"/>
    </contour>
    <contour>
      <point x="45" y="100" type="line"/>
      <point x="230" y="100" type="line"/>
      <point x="230" y="550" type="line"/>
      <point x="45" y="550" type="line"/>
    </contour>
  </outline>
</glyph>
<glyph name="M.small" format="1">
  <advance width="618"/>
  <outline>
    <contour>
      <point x="50" y="0" type="line"/>
      <point x="225" y="0" type="line"/>
      <point x="225" y="275" type="line"/>
      <point x="290" y="146" type="line"/>
      <point x="316" y="146" type="line"/>
      <point x="381" y="276" type="line"/>
      <point x="383" y="275" type="line"/>
      <point x="383" y="0" type="line"/>
      <point x="568" y="0" type="line"/>
      <point x="568" y="550" type="line"/>
      <point x="407" y="550" type="line"/>
      <point x="304" y="342" type="line"/>
      <point x="207" y="550" type="line"/>
      <point x="50" y="550" type="line"/>
    </contour>
  </outline>
</glyph>
<glyph name="N.small" format="1">
  <advance width="558"/>
  <outline>
    <contour>
      <point x="333" y="550" type="line"/>
      <point x="333" y="364"/>
      <point x="333" y="269"/>
      <point x="333" y="269" type="curve"/>
      <point x="213" y="550" type="line"/>
      <point x="50" y="550" type="line"/>
      <point x="50" y="0" type="line"/>
      <point x="225" y="0" type="line"/>
      <point x="225" y="200"/>
      <point x="225" y="278"/>
      <point x="227" y="280" type="curve"/>
      <point x="348" y="0" type="line"/>
      <point x="508" y="0" type="line"/>
      <point x="508" y="550" type="line"/>
    </contour>
  </outline>
</glyph>
<glyph name="O.small" format="1">
  <advance width="530"/>
  <outline>
    <contour>
      <point x="37" y="362" type="curve" smooth="yes"/>
      <point x="35" y="323"/>
      <point x="36" y="226"/>
      <point x="37" y="188" type="curve" smooth="yes"/>
      <point x="42" y="57"/>
      <point x="139" y="-15"/>
      <point x="265" y="-15" type="curve" smooth="yes"/>
      <point x="390" y="-15"/>
      <point x="487" y="56"/>
      <point x="493" y="181" type="curve" smooth="yes"/>
      <point x="495" y="221"/>
      <point x="495" y="326"/>
      <point x="493" y="362" type="curve" smooth="yes"/>
      <point x="486" y="493"/>
      <point x="394" y="565"/>
      <point x="265" y="565" type="curve" smooth="yes"/>
      <point x="135" y="565"/>
      <point x="43" y="493"/>
    </contour>
    <contour>
      <point x="222" y="193" type="curve" smooth="yes"/>
      <point x="221" y="241"/>
      <point x="221" y="310"/>
      <point x="222" y="356" type="curve" smooth="yes"/>
      <point x="223" y="393"/>
      <point x="233" y="415"/>
      <point x="265" y="415" type="curve" smooth="yes"/>
      <point x="296" y="415"/>
      <point x="307" y="393"/>
      <point x="308" y="356" type="curve" smooth="yes"/>
      <point x="309" y="310"/>
      <point x="310" y="236"/>
      <point x="308" y="193" type="curve" smooth="yes"/>
      <point x="306" y="154"/>
      <point x="296" y="135"/>
      <point x="265" y="135" type="curve" smooth="yes"/>
      <point x="233" y="135"/>
      <point x="223" y="153"/>
    </contour>
  </outline>
</glyph>
<glyph name="OE.small" format="1">
  <advance width="688"/>
  <outline>
    <contour>
      <point x="37" y="362" type="curve" smooth="yes"/>
      <point x="35" y="323"/>
      <point x="36" y="226"/>
      <point x="37" y="188" type="curve" smooth="yes"/>
      <point x="42" y="57"/>
      <point x="139" y="-15"/>
      <point x="265" y="-15" type="curve" smooth="yes"/>
      <point x="390" y="-15"/>
      <point x="457" y="66"/>
      <point x="463" y="181" type="curve" smooth="yes"/>
      <point x="465" y="221"/>
      <point x="465" y="326"/>
      <point x="463" y="362" type="curve" smooth="yes"/>
      <point x="456" y="483"/>
      <point x="394" y="565"/>
      <point x="265" y="565" type="curve" smooth="yes"/>
      <point x="135" y="565"/>
      <point x="43" y="493"/>
    </contour>
    <contour>
      <point x="222" y="193" type="curve" smooth="yes"/>
      <point x="221" y="241"/>
      <point x="221" y="310"/>
      <point x="222" y="356" type="curve" smooth="yes"/>
      <point x="223" y="393"/>
      <point x="233" y="415"/>
      <point x="265" y="415" type="curve" smooth="yes"/>
      <point x="296" y="415"/>
      <point x="307" y="398"/>
      <point x="308" y="376" type="curve" smooth="yes"/>
      <point x="310" y="330"/>
      <point x="312" y="216"/>
      <point x="308" y="173" type="curve" smooth="yes"/>
      <point x="306" y="149"/>
      <point x="296" y="135"/>
      <point x="265" y="135" type="curve" smooth="yes"/>
      <point x="233" y="135"/>
      <point x="223" y="153"/>
    </contour>
    <contour>
      <point x="300" y="0" type="line"/>
      <point x="651" y="0" type="line"/>
      <point x="651" y="150" type="line"/>
      <point x="470" y="150" type="line"/>
      <point x="470" y="205" type="line"/>
      <point x="640" y="205" type="line"/>
      <point x="640" y="345" type="line"/>
      <point x="470" y="345" type="line"/>
      <point x="470" y="400" type="line"/>
      <point x="653" y="400" type="line"/>
      <point x="653" y="550" type="line"/>
      <point x="300" y="550" type="line"/>
    </contour>
  </outline>
</glyph>
<glyph name="R.small" format="1">
  <advance width="510"/>
  <outline>
    <contour>
      <point x="378" y="205" type="line"/>
      <point x="381" y="215" type="line"/>
      <point x="422" y="233"/>
      <point x="496" y="279"/>
      <point x="496" y="371" type="curve" smooth="yes"/>
      <point x="496" y="532"/>
      <point x="345" y="551"/>
      <point x="216" y="551" type="curve" smooth="yes"/>
      <point x="125" y="551"/>
      <point x="50" y="550"/>
      <point x="50" y="550" type="curve"/>
      <point x="50" y="0" type="line"/>
      <point x="235" y="0" type="line"/>
      <point x="235" y="190" type="line"/>
      <point x="329" y="190" type="line"/>
    </contour>
    <contour>
      <point x="235" y="400" type="line"/>
      <point x="235" y="400"/>
      <point x="238" y="401"/>
      <point x="247" y="401" type="curve" smooth="yes"/>
      <point x="291" y="401"/>
      <point x="310" y="383"/>
      <point x="310" y="353" type="curve" smooth="yes"/>
      <point x="310" y="314"/>
      <point x="280" y="304"/>
      <point x="250" y="304" type="curve" smooth="yes"/>
      <point x="241" y="304"/>
      <point x="235" y="305"/>
      <point x="235" y="305" type="curve"/>
    </contour>
    <contour>
      <point x="248" y="190" type="line"/>
      <point x="320" y="0" type="line"/>
      <point x="515" y="0" type="line"/>
      <point x="430" y="203" type="line" smooth="yes"/>
      <point x="405" y="262"/>
      <point x="343" y="264"/>
      <point x="343" y="264" type="curve"/>
    </contour>
  </outline>
</glyph>
<glyph name="S.small" format="1">
  <advance width="499"/>
  <outline>
    <contour>
      <point x="254" y="135" type="curve" smooth="yes"/>
      <point x="227" y="135"/>
      <point x="210" y="150"/>
      <point x="211" y="185" type="curve"/>
      <point x="26" y="180" type="line"/>
      <point x="21" y="59"/>
      <point x="113" y="-15"/>
      <point x="247" y="-15" type="curve" smooth="yes"/>
      <point x="378" y="-15"/>
      <point x="474" y="52"/>
      <point x="474" y="163" type="curve" smooth="yes"/>
      <point x="474" y="255"/>
      <point x="403" y="289"/>
      <point x="331" y="314" type="curve" smooth="yes"/>
      <point x="256" y="340"/>
      <point x="217" y="355"/>
      <point x="217" y="388" type="curve" smooth="yes"/>
      <point x="217" y="407"/>
      <point x="232" y="415"/>
      <point x="250" y="415" type="curve" smooth="yes"/>
      <point x="276" y="415"/>
      <point x="287" y="391"/>
      <point x="283" y="360" type="curve"/>
      <point x="468" y="365" type="line"/>
      <point x="473" y="472"/>
      <point x="408" y="565"/>
      <point x="254" y="565" type="curve" smooth="yes"/>
      <point x="144" y="565"/>
      <point x="32" y="503"/>
      <point x="32" y="386" type="curve" smooth="yes"/>
      <point x="32" y="293"/>
      <point x="90" y="257"/>
      <point x="172" y="225" type="curve" smooth="yes"/>
      <point x="240" y="199"/>
      <point x="289" y="191"/>
      <point x="289" y="159" type="curve" smooth="yes"/>
      <point x="289" y="142"/>
      <point x="272" y="135"/>
    </contour>
  </outline>
</glyph>
<glyph name="Thorn.small" format="1">
  <advance width="515"/>
  <outline>
    <contour>
      <point x="235" y="0" type="line"/>
      <point x="235" y="71" type="line"/>
      <point x="235" y="71"/>
      <point x="240" y="69"/>
      <point x="256" y="69" type="curve" smooth="yes"/>
      <point x="406" y="69"/>
      <point x="500" y="147"/>
      <point x="500" y="274" type="curve" smooth="yes"/>
      <point x="500" y="425"/>
      <point x="405" y="486"/>
      <point x="201" y="486" type="curve" smooth="yes"/>
      <point x="118" y="486"/>
      <point x="50" y="485"/>
      <point x="50" y="485" type="curve"/>
      <point x="50" y="0" type="line"/>
    </contour>
    <contour>
      <point x="235" y="335" type="line"/>
      <point x="235" y="335"/>
      <point x="237" y="336"/>
      <point x="248" y="336" type="curve" smooth="yes"/>
      <point x="293" y="336"/>
      <point x="310" y="311"/>
      <point x="310" y="278" type="curve" smooth="yes"/>
      <point x="310" y="233"/>
      <point x="281" y="219"/>
      <point x="251" y="219" type="curve" smooth="yes"/>
      <point x="240" y="219"/>
      <point x="235" y="220"/>
      <point x="235" y="220" type="curve"/>
    </contour>
    <contour>
      <point x="50" y="0" type="line"/>
      <point x="235" y="0" type="line"/>
      <point x="235" y="550" type="line"/>
      <point x="50" y="550" type="line"/>
    </contour>
  </outline>
</glyph>
<glyph name="W.small" format="1">
  <advance width="807"/>
  <outline>
    <contour>
      <point x="557" y="208" type="line"/>
      <point x="489" y="550" type="line"/>
      <point x="326" y="550" type="line"/>
      <point x="264" y="211" type="line"/>
      <point x="210" y="550" type="line"/>
      <point x="10" y="550" type="line"/>
      <point x="143" y="0" type="line"/>
      <point x="340" y="0" type="line"/>
      <point x="405" y="311" type="line"/>
      <point x="480" y="0" type="line"/>
      <point x="664" y="0" type="line"/>
      <point x="797" y="550" type="line"/>
      <point x="607" y="550" type="line"/>
    </contour>
  </outline>
</glyph>
<glyph name="X.small" format="1">
  <advance width="498"/>
  <outline>
    <contour>
      <point x="503" y="550" type="line"/>
      <point x="318" y="550" type="line"/>
      <point x="257" y="399" type="line"/>
      <point x="195" y="550" type="line"/>
      <point x="-5" y="550" type="line"/>
      <point x="141" y="281" type="line"/>
      <point x="-5" y="0" type="line"/>
      <point x="180" y="0" type="line"/>
      <point x="244" y="151" type="line"/>
      <point x="308" y="0" type="line"/>
      <point x="508" y="0" type="line"/>
      <point x="358" y="281" type="line"/>
    </contour>
  </outline>
</glyph>
<glyph name="Y.small" format="1">
  <advance width="493"/>
  <outline>
    <contour>
      <point x="340" y="0" type="line"/>
      <point x="340" y="199" type="line"/>
      <point x="513" y="550" type="line"/>
      <point x="318" y="550" type="line"/>
      <point x="250" y="361" type="line"/>
      <point x="185" y="550" type="line"/>
      <point x="-15" y="550" type="line"/>
      <point x="155" y="200" type="line"/>
      <point x="155" y="0" type="line"/>
    </contour>
  </outline>
</glyph>
<glyph name="a.alt" format="1">
  <advance width="517"/>
  <outline>
    <contour>
      <point x="245" y="311" type="line"/>
      <point x="218" y="319"/>
      <point x="214" y="324"/>
      <point x="214" y="340" type="curve" smooth="yes"/>
      <point x="214" y="353"/>
      <point x="225" y="365"/>
      <point x="245" y="365" type="curve" smooth="yes"/>
      <point x="265" y="365"/>
      <point x="275" y="354"/>
      <point x="275" y="329" type="curve" smooth="yes"/>
      <point x="275" y="164" type="line" smooth="yes"/>
      <point x="275" y="142"/>
      <point x="263" y="130"/>
      <point x="244" y="130" type="curve" smooth="yes"/>
      <point x="224" y="130"/>
      <point x="210" y="144"/>
      <point x="210" y="166" type="curve" smooth="yes"/>
      <point x="210" y="188"/>
      <point x="217" y="194"/>
      <point x="236" y="200" type="curve" smooth="yes"/>
      <point x="245" y="203" type="line"/>
      <point x="245" y="269" type="line"/>
      <point x="213" y="265"/>
      <point x="157" y="257"/>
      <point x="123" y="250" type="curve" smooth="yes"/>
      <point x="58" y="236"/>
      <point x="30" y="194"/>
      <point x="30" y="137" type="curve" smooth="yes"/>
      <point x="30" y="27"/>
      <point x="109" y="-15"/>
      <point x="185" y="-15" type="curve" smooth="yes"/>
      <point x="239" y="-15"/>
      <point x="284" y="4"/>
      <point x="309" y="51" type="curve"/>
      <point x="311" y="51" type="line"/>
      <point x="357" y="-29"/>
      <point x="473" y="-15"/>
      <point x="507" y="0" type="curve"/>
      <point x="507" y="125" type="line"/>
      <point x="463" y="125"/>
      <point x="455" y="134"/>
      <point x="455" y="173" type="curve" smooth="yes"/>
      <point x="455" y="316" type="line" smooth="yes"/>
      <point x="455" y="446"/>
      <point x="371" y="510"/>
      <point x="252" y="510" type="curve" smooth="yes"/>
      <point x="142" y="510"/>
      <point x="44" y="450"/>
      <point x="44" y="343" type="curve" smooth="yes"/>
      <point x="44" y="310"/>
      <point x="56" y="289"/>
      <point x="91" y="281" type="curve" smooth="yes"/>
      <point x="145" y="269"/>
      <point x="209" y="260"/>
      <point x="209" y="260" type="curve"/>
      <point x="245" y="262" type="line"/>
    </contour>
  </outline>
</glyph>
<glyph name="bullet.cap" format="1">
  <advance width="407"/>
  <outline>
    <contour>
      <point x="50" y="350" type="curve" smooth="yes"/>
      <point x="50" y="269"/>
      <point x="120" y="200"/>
      <point x="202" y="200" type="curve" smooth="yes"/>
      <point x="286" y="200"/>
      <point x="357" y="269"/>
      <point x="357" y="350" type="curve" smooth="yes"/>
      <point x="357" y="435"/>
      <point x="286" y="505"/>
      <point x="202" y="505" type="curve" smooth="yes"/>
      <point x="120" y="505"/>
      <point x="50" y="435"/>
    </contour>
  </outline>
</glyph>
<glyph name="circumflex.cap" format="1">
  <advance width="398"/>
  <outline>
    <contour>
      <point x="201" y="710" type="line"/>
      <point x="103" y="595" type="line"/>
      <point x="243" y="595" type="line"/>
      <point x="282" y="648" type="line"/>
      <point x="316" y="595" type="line"/>
      <point x="461" y="595" type="line"/>
      <point x="370" y="710" type="line"/>
    </contour>
  </outline>
</glyph>
<glyph name="csuperior" format="1">
  <advance width="331"/>
  <outline>
    <contour>
      <point x="315" y="597" type="line"/>
      <point x="321" y="669"/>
      <point x="280" y="720"/>
      <point x="175" y="720" type="curve" smooth="yes"/>
      <point x="92" y="720"/>
      <point x="32" y="673"/>
      <point x="27" y="600" type="curve" smooth="yes"/>
      <point x="25" y="570"/>
      <point x="25" y="535"/>
      <point x="27" y="502" type="curve" smooth="yes"/>
      <point x="32" y="424"/>
      <point x="80" y="380"/>
      <point x="176" y="380" type="curve" smooth="yes"/>
      <point x="271" y="380"/>
      <point x="314" y="435"/>
      <point x="315" y="501" type="curve"/>
      <point x="200" y="505" type="line"/>
      <point x="201" y="488"/>
      <point x="191" y="475"/>
      <point x="176" y="475" type="curve" smooth="yes"/>
      <point x="164" y="475"/>
      <point x="152" y="485"/>
      <point x="152" y="503" type="curve"/>
      <point x="150" y="538"/>
      <point x="150" y="570"/>
      <point x="152" y="600" type="curve" smooth="yes"/>
      <point x="153" y="617"/>
      <point x="163" y="625"/>
      <point x="175" y="625" type="curve" smooth="yes"/>
      <point x="189" y="625"/>
      <point x="198" y="613"/>
      <point x="195" y="594" type="curve"/>
    </contour>
  </outline>
</glyph>
<glyph name="dsuperior" format="1">
  <advance width="374"/>
  <outline>
    <contour>
      <point x="200" y="502" type="line"/>
      <point x="200" y="486"/>
      <point x="191" y="475"/>
      <point x="176" y="475" type="curve" smooth="yes"/>
      <point x="162" y="475"/>
      <point x="152" y="487"/>
      <point x="152" y="503" type="curve" smooth="yes"/>
      <point x="150" y="536"/>
      <point x="150" y="566"/>
      <point x="152" y="599" type="curve" smooth="yes"/>
      <point x="152" y="615"/>
      <point x="162" y="625"/>
      <point x="176" y="625" type="curve" smooth="yes"/>
      <point x="191" y="625"/>
      <point x="200" y="614"/>
      <point x="200" y="597" type="curve" smooth="yes"/>
    </contour>
    <contour>
      <point x="359" y="471" type="line"/>
      <point x="330" y="471"/>
      <point x="325" y="477"/>
      <point x="325" y="502" type="curve" smooth="yes"/>
      <point x="325" y="850" type="line"/>
      <point x="200" y="831" type="line"/>
      <point x="200" y="704" type="line"/>
      <point x="200" y="704"/>
      <point x="177" y="720"/>
      <point x="136" y="720" type="curve" smooth="yes"/>
      <point x="76" y="720"/>
      <point x="30" y="683"/>
      <point x="27" y="602" type="curve" smooth="yes"/>
      <point x="25" y="566"/>
      <point x="25" y="521"/>
      <point x="27" y="486" type="curve" smooth="yes"/>
      <point x="30" y="416"/>
      <point x="76" y="380"/>
      <point x="136" y="380" type="curve" smooth="yes"/>
      <point x="196" y="380"/>
      <point x="221" y="422"/>
      <point x="221" y="422" type="curve"/>
      <point x="244" y="378"/>
      <point x="320" y="376"/>
      <point x="359" y="390" type="curve"/>
    </contour>
  </outline>
</glyph>
<glyph name="fb" format="1">
  <advance width="837"/>
  <outline>
    <contour>
      <point x="60" y="495" type="line"/>
      <point x="5" y="495" type="line"/>
      <point x="5" y="370" type="line"/>
      <point x="60" y="370" type="line"/>
      <point x="60" y="0" type="line"/>
      <point x="240" y="0" type="line"/>
      <point x="240" y="370" type="line"/>
      <point x="316" y="370" type="line"/>
      <point x="316" y="495" type="line"/>
      <point x="240" y="495" type="line"/>
      <point x="240" y="532" type="line" smooth="yes"/>
      <point x="240" y="581"/>
      <point x="271" y="600"/>
      <point x="308" y="600" type="curve" smooth="yes"/>
      <point x="343" y="600"/>
      <point x="368" y="586"/>
      <point x="368" y="586" type="curve"/>
      <point x="402" y="720" type="line"/>
      <point x="365" y="741"/>
      <point x="330" y="750"/>
      <point x="273" y="750" type="curve" smooth="yes"/>
      <point x="157" y="750"/>
      <point x="60" y="666"/>
      <point x="60" y="537" type="curve" smooth="yes"/>
    </contour>
    <component base="b" xOffset="328"/>
  </outline>
</glyph>
<glyph name="ffb" format="1">
  <advance width="1167"/>
  <outline>
    <contour>
      <point x="390" y="495" type="line"/>
      <point x="335" y="495" type="line"/>
      <point x="335" y="370" type="line"/>
      <point x="390" y="370" type="line"/>
      <point x="390" y="0" type="line"/>
      <point x="570" y="0" type="line"/>
      <point x="570" y="370" type="line"/>
      <point x="646" y="370" type="line"/>
      <point x="646" y="495" type="line"/>
      <point x="570" y="495" type="line"/>
      <point x="570" y="532" type="line" smooth="yes"/>
      <point x="570" y="581"/>
      <point x="601" y="600"/>
      <point x="638" y="600" type="curve" smooth="yes"/>
      <point x="673" y="600"/>
      <point x="698" y="586"/>
      <point x="698" y="586" type="curve"/>
      <point x="732" y="720" type="line"/>
      <point x="695" y="741"/>
      <point x="660" y="750"/>
      <point x="603" y="750" type="curve" smooth="yes"/>
      <point x="487" y="750"/>
      <point x="390" y="666"/>
      <point x="390" y="537" type="curve" smooth="yes"/>
    </contour>
    <contour>
      <point x="60" y="495" type="line"/>
      <point x="5" y="495" type="line"/>
      <point x="5" y="370" type="line"/>
      <point x="60" y="370" type="line"/>
      <point x="60" y="0" type="line"/>
      <point x="240" y="0" type="line"/>
      <point x="240" y="370" type="line"/>
      <point x="336" y="370" type="line"/>
      <point x="336" y="495" type="line"/>
      <point x="240" y="495" type="line"/>
      <point x="240" y="547" type="line" smooth="yes"/>
      <point x="240" y="581"/>
      <point x="266" y="595"/>
      <point x="293" y="595" type="curve" smooth="yes"/>
      <point x="319" y="595"/>
      <point x="339" y="590"/>
      <point x="339" y="590" type="curve"/>
      <point x="367" y="715" type="line"/>
      <point x="335" y="736"/>
      <point x="295" y="745"/>
      <point x="253" y="745" type="curve" smooth="yes"/>
      <point x="147" y="745"/>
      <point x="60" y="676"/>
      <point x="60" y="557" type="curve" smooth="yes"/>
    </contour>
    <component base="b" xOffset="658"/>
  </outline>
</glyph>
<glyph name="fourlining" format="1">
  <advance width="580"/>
  <outline>
    <contour>
      <point x="307" y="161" type="line"/>
      <point x="307" y="0" type="line"/>
      <point x="487" y="0" type="line"/>
      <point x="487" y="161" type="line"/>
      <point x="565" y="161" type="line"/>
      <point x="565" y="306" type="line"/>
      <point x="487" y="306" type="line"/>
      <point x="487" y="710" type="line"/>
      <point x="379" y="718"/>
      <point x="277" y="720"/>
      <point x="277" y="720" type="curve"/>
      <point x="15" y="248" type="line"/>
      <point x="40" y="161" type="line"/>
    </contour>
    <contour>
      <point x="182" y="306" type="line"/>
      <point x="307" y="554" type="line"/>
      <point x="307" y="306" type="line"/>
    </contour>
  </outline>
</glyph>
<glyph name="fourprop" format="1">
  <advance width="580"/>
  <outline>
    <contour>
      <point x="302" y="161" type="line"/>
      <point x="302" y="0" type="line"/>
      <point x="482" y="0" type="line"/>
      <point x="482" y="161" type="line"/>
      <point x="580" y="161" type="line"/>
      <point x="580" y="306" type="line"/>
      <point x="482" y="306" type="line"/>
      <point x="482" y="710" type="line"/>
      <point x="374" y="718"/>
      <point x="272" y="720"/>
      <point x="272" y="720" type="curve"/>
      <point x="-5" y="248" type="line"/>
      <point x="20" y="161" type="line"/>
    </contour>
    <contour>
      <point x="162" y="306" type="line"/>
      <point x="302" y="554" type="line"/>
      <point x="302" y="306" type="line"/>
    </contour>
  </outline>
</glyph>
<glyph name="g.alt" format="1">
  <advance width="496"/>
  <outline>
    <contour>
      <point x="456" y="458" type="line"/>
      <point x="456" y="458"/>
      <point x="367" y="510"/>
      <point x="241" y="510" type="curve" smooth="yes"/>
      <point x="128" y="510"/>
      <point x="31" y="451"/>
      <point x="27" y="322" type="curve" smooth="yes"/>
      <point x="25" y="261"/>
      <point x="24" y="221"/>
      <point x="27" y="168" type="curve" smooth="yes"/>
      <point x="32" y="84"/>
      <point x="88" y="45"/>
      <point x="144" y="34" type="curve"/>
      <point x="124" y="24"/>
      <point x="101" y="8"/>
      <point x="74" y="-10" type="curve" smooth="yes"/>
      <point x="32" y="-39"/>
      <point x="20" y="-59"/>
      <point x="20" y="-99" type="curve" smooth="yes"/>
      <point x="20" y="-206"/>
      <point x="118" y="-265"/>
      <point x="245" y="-265" type="curve" smooth="yes"/>
      <point x="363" y="-265"/>
      <point x="456" y="-195"/>
      <point x="456" y="-69" type="curve" smooth="yes"/>
    </contour>
    <contour>
      <point x="242" y="160" type="line"/>
      <point x="225" y="160"/>
      <point x="208" y="171"/>
      <point x="207" y="196" type="curve" smooth="yes"/>
      <point x="205" y="238"/>
      <point x="205" y="281"/>
      <point x="207" y="329" type="curve" smooth="yes"/>
      <point x="208" y="357"/>
      <point x="228" y="365"/>
      <point x="245" y="365" type="curve" smooth="yes"/>
      <point x="257" y="365"/>
      <point x="269" y="362"/>
      <point x="276" y="358" type="curve"/>
      <point x="276" y="-78" type="line" smooth="yes"/>
      <point x="276" y="-108"/>
      <point x="261" y="-120"/>
      <point x="240" y="-120" type="curve" smooth="yes"/>
      <point x="220" y="-120"/>
      <point x="200" y="-107"/>
      <point x="200" y="-77" type="curve" smooth="yes"/>
      <point x="200" y="-53"/>
      <point x="200" y="-50"/>
      <point x="215" y="-38" type="curve" smooth="yes"/>
      <point x="242" y="-18" type="line"/>
    </contour>
  </outline>
</glyph>
<glyph name="grave.cap" format="1">
  <advance width="295"/>
  <outline>
    <contour>
      <point x="201" y="710" type="line"/>
      <point x="347" y="595" type="line"/>
      <point x="466" y="595" type="line"/>
      <point x="391" y="710" type="line"/>
    </contour>
  </outline>
</glyph>
<glyph name="hyphen.cap" format="1">
  <advance width="283"/>
  <outline>
    <contour>
      <point x="15" y="240" type="line"/>
      <point x="268" y="240" type="line"/>
      <point x="268" y="385" type="line"/>
      <point x="15" y="385" type="line"/>
    </contour>
  </outline>
</glyph>
<glyph name="isuperior" format="1">
  <advance width="207"/>
  <outline>
    <contour>
      <point x="25" y="797" type="curve" smooth="yes"/>
      <point x="25" y="766"/>
      <point x="52" y="741"/>
      <point x="97" y="741" type="curve" smooth="yes"/>
      <point x="142" y="741"/>
      <point x="169" y="766"/>
      <point x="169" y="797" type="curve" smooth="yes"/>
      <point x="169" y="830"/>
      <point x="142" y="855"/>
      <point x="97" y="855" type="curve" smooth="yes"/>
      <point x="52" y="855"/>
      <point x="25" y="830"/>
    </contour>
    <contour>
      <point x="159" y="715" type="line"/>
      <point x="34" y="695" type="line"/>
      <point x="34" y="479" type="line" smooth="yes"/>
      <point x="34" y="372"/>
      <point x="139" y="378"/>
      <point x="197" y="390" type="curve"/>
      <point x="197" y="475" type="line"/>
      <point x="175" y="475"/>
      <point x="159" y="479"/>
      <point x="159" y="505" type="curve" smooth="yes"/>
    </contour>
  </outline>
</glyph>
<glyph name="ksuperior" format="1">
  <advance width="364"/>
  <outline>
    <contour>
      <point x="155" y="850" type="curve"/>
      <point x="30" y="831" type="line"/>
      <point x="30" y="390" type="line"/>
      <point x="155" y="390" type="line"/>
      <point x="155" y="587"/>
      <point x="155" y="493"/>
    </contour>
    <contour>
      <point x="159" y="578" type="line"/>
      <point x="159" y="560" type="line"/>
      <point x="159" y="560"/>
      <point x="184" y="505"/>
      <point x="209" y="450" type="curve" smooth="yes"/>
      <point x="237" y="389"/>
      <point x="278" y="380"/>
      <point x="313" y="380" type="curve" smooth="yes"/>
      <point x="332" y="380"/>
      <point x="350" y="386"/>
      <point x="359" y="390" type="curve"/>
      <point x="359" y="475" type="line"/>
      <point x="341" y="475"/>
      <point x="327" y="478"/>
      <point x="316" y="500" type="curve" smooth="yes"/>
      <point x="278" y="573" type="line"/>
      <point x="306" y="610" type="line" smooth="yes"/>
      <point x="319" y="627"/>
      <point x="330" y="628"/>
      <point x="348" y="628" type="curve"/>
      <point x="348" y="710" type="line"/>
      <point x="348" y="710"/>
      <point x="329" y="720"/>
      <point x="308" y="720" type="curve" smooth="yes"/>
      <point x="265" y="720"/>
      <point x="243" y="699"/>
      <point x="213" y="656" type="curve" smooth="yes"/>
    </contour>
  </outline>
</glyph>
<glyph name="msuperior" format="1">
  <advance width="543"/>
  <outline>
    <contour>
      <point x="173" y="595" type="line"/>
      <point x="173" y="608"/>
      <point x="180" y="625"/>
      <point x="198" y="625" type="curve" smooth="yes"/>
      <point x="210" y="625"/>
      <point x="218" y="616"/>
      <point x="218" y="598" type="curve" smooth="yes"/>
      <point x="218" y="390" type="line"/>
      <point x="343" y="390" type="line"/>
      <point x="343" y="605" type="line" smooth="yes"/>
      <point x="343" y="679"/>
      <point x="306" y="720"/>
      <point x="244" y="720" type="curve" smooth="yes"/>
      <point x="208" y="720"/>
      <point x="174" y="707"/>
      <point x="155" y="677" type="curve"/>
      <point x="152" y="677" type="line"/>
    </contour>
    <contour>
      <point x="343" y="595" type="line"/>
      <point x="343" y="608"/>
      <point x="352" y="625"/>
      <point x="368" y="625" type="curve" smooth="yes"/>
      <point x="382" y="625"/>
      <point x="388" y="615"/>
      <point x="388" y="600" type="curve" smooth="yes"/>
      <point x="388" y="390" type="line"/>
      <point x="513" y="390" type="line"/>
      <point x="513" y="607" type="line" smooth="yes"/>
      <point x="513" y="681"/>
      <point x="484" y="720"/>
      <point x="419" y="720" type="curve" smooth="yes"/>
      <point x="381" y="720"/>
      <point x="349" y="705"/>
      <point x="330" y="676" type="curve"/>
      <point x="326" y="676" type="line"/>
    </contour>
    <contour>
      <point x="173" y="595" type="line"/>
      <point x="173" y="693"/>
      <point x="116" y="715"/>
      <point x="67" y="715" type="curve" smooth="yes"/>
      <point x="41" y="715"/>
      <point x="15" y="710"/>
      <point x="15" y="710" type="curve"/>
      <point x="15" y="630" type="line"/>
      <point x="40" y="630"/>
      <point x="48" y="619"/>
      <point x="48" y="595" type="curve" smooth="yes"/>
      <point x="48" y="390" type="line"/>
      <point x="173" y="390" type="line"/>
    </contour>
  </outline>
</glyph>
<glyph name="oneprop" format="1">
  <advance width="446"/>
  <outline>
    <contour>
      <point x="137" y="555" type="line"/>
      <point x="137" y="132" type="line"/>
      <point x="36" y="114" type="line"/>
      <point x="36" y="0" type="line"/>
      <point x="431" y="0" type="line"/>
      <point x="431" y="115" type="line"/>
      <point x="327" y="133" type="line"/>
      <point x="327" y="710" type="line"/>
      <point x="232" y="715" type="line"/>
      <point x="35" y="652" type="line"/>
      <point x="50" y="542" type="line"/>
    </contour>
  </outline>
</glyph>
<glyph name="psuperior" format="1">
  <advance width="364"/>
  <outline>
    <contour>
      <point x="38" y="227" type="line"/>
      <point x="163" y="227" type="line"/>
      <point x="163" y="391" type="line"/>
      <point x="163" y="391"/>
      <point x="187" y="380"/>
      <point x="219" y="380" type="curve" smooth="yes"/>
      <point x="289" y="380"/>
      <point x="335" y="417"/>
      <point x="338" y="499" type="curve" smooth="yes"/>
      <point x="339" y="537"/>
      <point x="339" y="574"/>
      <point x="338" y="609" type="curve" smooth="yes"/>
      <point x="335" y="681"/>
      <point x="297" y="720"/>
      <point x="235" y="720" type="curve" smooth="yes"/>
      <point x="173" y="720"/>
      <point x="143" y="675"/>
      <point x="143" y="675" type="curve"/>
      <point x="124" y="707"/>
      <point x="88" y="715"/>
      <point x="51" y="715" type="curve" smooth="yes"/>
      <point x="35" y="715"/>
      <point x="18" y="713"/>
      <point x="5" y="710" type="curve"/>
      <point x="5" y="630" type="line"/>
      <point x="28" y="630"/>
      <point x="38" y="620"/>
      <point x="38" y="596" type="curve" smooth="yes"/>
    </contour>
    <contour>
      <point x="163" y="594" type="line"/>
      <point x="163" y="610"/>
      <point x="175" y="625"/>
      <point x="190" y="625" type="curve" smooth="yes"/>
      <point x="205" y="625"/>
      <point x="213" y="614"/>
      <point x="213" y="595" type="curve" smooth="yes"/>
      <point x="213" y="500" type="line" smooth="yes"/>
      <point x="213" y="486"/>
      <point x="204" y="474"/>
      <point x="188" y="474" type="curve" smooth="yes"/>
      <point x="173" y="474"/>
      <point x="163" y="485"/>
      <point x="163" y="501" type="curve" smooth="yes"/>
    </contour>
  </outline>
</glyph>
<glyph name="question.small" format="1">
  <advance width="461"/>
  <outline>
    <contour>
      <point x="456" y="409" type="curve" smooth="yes"/>
      <point x="456" y="520"/>
      <point x="341" y="565"/>
      <point x="252" y="565" type="curve" smooth="yes"/>
      <point x="113" y="565"/>
      <point x="24" y="485"/>
      <point x="26" y="365" type="curve"/>
      <point x="196" y="370" type="line"/>
      <point x="193" y="400"/>
      <point x="212" y="420"/>
      <point x="236" y="420" type="curve" smooth="yes"/>
      <point x="259" y="420"/>
      <point x="270" y="405"/>
      <point x="270" y="384" type="curve" smooth="yes"/>
      <point x="270" y="360"/>
      <point x="260" y="353"/>
      <point x="224" y="326" type="curve" smooth="yes"/>
      <point x="190" y="300"/>
      <point x="174" y="284"/>
      <point x="179" y="253" type="curve" smooth="yes"/>
      <point x="183" y="228" type="line"/>
      <point x="284" y="228" type="line"/>
      <point x="284" y="252"/>
      <point x="301" y="264"/>
      <point x="364" y="290" type="curve" smooth="yes"/>
      <point x="443" y="323"/>
      <point x="456" y="358"/>
    </contour>
    <contour>
      <point x="136" y="82" type="curve" smooth="yes"/>
      <point x="136" y="25"/>
      <point x="179" y="-15"/>
      <point x="234" y="-15" type="curve" smooth="yes"/>
      <point x="291" y="-15"/>
      <point x="334" y="25"/>
      <point x="334" y="82" type="curve" smooth="yes"/>
      <point x="334" y="141"/>
      <point x="291" y="180"/>
      <point x="234" y="180" type="curve" smooth="yes"/>
      <point x="179" y="180"/>
      <point x="136" y="141"/>
    </contour>
  </outline>
</glyph>
<glyph name="sevenprop" format="1">
  <advance width="500"/>
  <outline>
    <contour>
      <point x="475" y="710" type="line"/>
      <point x="5" y="710" type="line"/>
      <point x="5" y="560" type="line"/>
      <point x="283" y="560" type="line"/>
      <point x="44" y="0" type="line"/>
      <point x="234" y="0" type="line"/>
      <point x="495" y="600" type="line"/>
    </contour>
  </outline>
</glyph>
<glyph name="sixprop" format="1">
  <advance width="560"/>
  <outline>
    <contour>
      <point x="24" y="224" type="curve" smooth="yes"/>
      <point x="32" y="94"/>
      <point x="142" y="-14"/>
      <point x="285" y="-14" type="curve" smooth="yes"/>
      <point x="431" y="-14"/>
      <point x="544" y="83"/>
      <point x="544" y="231" type="curve" smooth="yes"/>
      <point x="544" y="363"/>
      <point x="458" y="445"/>
      <point x="353" y="445" type="curve" smooth="yes"/>
      <point x="236" y="445"/>
      <point x="204" y="365"/>
      <point x="204" y="365" type="curve"/>
      <point x="189" y="247" type="line"/>
      <point x="209" y="230" type="line"/>
      <point x="211" y="271"/>
      <point x="236" y="305"/>
      <point x="284" y="305" type="curve" smooth="yes"/>
      <point x="326" y="305"/>
      <point x="354" y="274"/>
      <point x="354" y="217" type="curve" smooth="yes"/>
      <point x="354" y="164"/>
      <point x="325" y="135"/>
      <point x="288" y="135" type="curve" smooth="yes"/>
      <point x="236" y="135"/>
      <point x="213" y="182"/>
      <point x="209" y="231" type="curve" smooth="yes"/>
      <point x="203" y="299"/>
      <point x="206" y="420"/>
      <point x="209" y="486" type="curve" smooth="yes"/>
      <point x="212" y="542"/>
      <point x="239" y="575"/>
      <point x="278" y="575" type="curve" smooth="yes"/>
      <point x="317" y="575"/>
      <point x="333" y="549"/>
      <point x="333" y="510" type="curve"/>
      <point x="508" y="520" type="line"/>
      <point x="508" y="656"/>
      <point x="410" y="725"/>
      <point x="283" y="725" type="curve" smooth="yes"/>
      <point x="123" y="725"/>
      <point x="34" y="619"/>
      <point x="24" y="485" type="curve" smooth="yes"/>
      <point x="19" y="418"/>
      <point x="20" y="294"/>
    </contour>
  </outline>
</glyph>
<glyph name="threelining" format="1">
  <advance width="555"/>
  <outline>
    <contour>
      <point x="274" y="-15" type="curve" smooth="yes"/>
      <point x="409" y="-15"/>
      <point x="527" y="78"/>
      <point x="527" y="222" type="curve" smooth="yes"/>
      <point x="527" y="333"/>
      <point x="454" y="400"/>
      <point x="372" y="412" type="curve"/>
      <point x="506" y="595" type="line"/>
      <point x="501" y="710" type="line"/>
      <point x="58" y="710" type="line"/>
      <point x="58" y="560" type="line"/>
      <point x="295" y="560" type="line"/>
      <point x="181" y="397" type="line"/>
      <point x="195" y="318" type="line"/>
      <point x="292" y="327"/>
      <point x="337" y="290"/>
      <point x="337" y="223" type="curve" smooth="yes"/>
      <point x="337" y="160"/>
      <point x="302" y="135"/>
      <point x="269" y="135" type="curve" smooth="yes"/>
      <point x="233" y="135"/>
      <point x="206" y="161"/>
      <point x="202" y="206" type="curve"/>
      <point x="27" y="196" type="line"/>
      <point x="40" y="65"/>
      <point x="136" y="-15"/>
    </contour>
  </outline>
</glyph>
<glyph name="tilde.cap" format="1">
  <advance width="358"/>
  <outline>
    <contour>
      <point x="217" y="575" type="curve" smooth="yes"/>
      <point x="305" y="575"/>
      <point x="313" y="652"/>
      <point x="282" y="706" type="curve"/>
      <point x="242" y="719" type="line"/>
      <point x="234" y="701"/>
      <point x="233" y="682"/>
      <point x="216" y="682" type="curve" smooth="yes"/>
      <point x="181" y="682"/>
      <point x="149" y="720"/>
      <point x="90" y="720" type="curve" smooth="yes"/>
      <point x="2" y="720"/>
      <point x="-11" y="643"/>
      <point x="20" y="589" type="curve"/>
      <point x="60" y="576" type="line"/>
      <point x="68" y="594"/>
      <point x="74" y="613"/>
      <point x="91" y="613" type="curve" smooth="yes"/>
      <point x="120" y="613"/>
      <point x="169" y="575"/>
    </contour>
  </outline>
</glyph>
<glyph name="tsuperior" format="1">
  <advance width="268"/>
  <outline>
    <contour>
      <point x="175" y="524" type="curve"/>
      <point x="175" y="625" type="line"/>
      <point x="252" y="625" type="line"/>
      <point x="252" y="710" type="line"/>
      <point x="175" y="710" type="line"/>
      <point x="175" y="800" type="line"/>
      <point x="50" y="781" type="line"/>
      <point x="50" y="710" type="line"/>
      <point x="5" y="710" type="line"/>
      <point x="5" y="625" type="line"/>
      <point x="50" y="625" type="line"/>
      <point x="50" y="500" type="line" smooth="yes"/>
      <point x="50" y="408"/>
      <point x="113" y="380"/>
      <point x="187" y="380" type="curve" smooth="yes"/>
      <point x="211" y="380"/>
      <point x="241" y="384"/>
      <point x="258" y="390" type="curve"/>
      <point x="255" y="475" type="line"/>
      <point x="247" y="474"/>
      <point x="244" y="474"/>
      <point x="224" y="474" type="curve" smooth="yes"/>
      <point x="192" y="474"/>
      <point x="175" y="488"/>
    </contour>
  </outline>
</glyph>
<glyph name="usuperior" format="1">
  <advance width="367"/>
  <outline>
    <contour>
      <point x="198" y="502" type="line"/>
      <point x="198" y="486"/>
      <point x="189" y="474"/>
      <point x="174" y="474" type="curve" smooth="yes"/>
      <point x="159" y="474"/>
      <point x="150" y="484"/>
      <point x="150" y="508" type="curve" smooth="yes"/>
      <point x="150" y="715" type="line"/>
      <point x="25" y="695" type="line"/>
      <point x="25" y="504" type="line" smooth="yes"/>
      <point x="25" y="419"/>
      <point x="68" y="380"/>
      <point x="132" y="380" type="curve" smooth="yes"/>
      <point x="197" y="380"/>
      <point x="217" y="423"/>
      <point x="217" y="423" type="curve"/>
      <point x="217" y="473" type="line"/>
    </contour>
    <contour>
      <point x="357" y="475" type="line"/>
      <point x="329" y="475"/>
      <point x="323" y="483"/>
      <point x="323" y="508" type="curve" smooth="yes"/>
      <point x="323" y="715" type="line"/>
      <point x="198" y="696" type="line"/>
      <point x="198" y="499" type="line" smooth="yes"/>
      <point x="198" y="490"/>
      <point x="215" y="430"/>
      <point x="216" y="422" type="curve"/>
      <point x="246" y="380"/>
      <point x="314" y="376"/>
      <point x="357" y="390" type="curve"/>
    </contour>
  </outline>
</glyph>
<glyph name="y.alt" format="1">
  <advance width="496"/>
  <outline>
    <contour>
      <point x="26" y="469" type="line"/>
      <point x="26" y="193" type="line" smooth="yes"/>
      <point x="26" y="94"/>
      <point x="73" y="40"/>
      <point x="144" y="34" type="curve"/>
      <point x="124" y="24"/>
      <point x="101" y="9"/>
      <point x="74" y="-10" type="curve" smooth="yes"/>
      <point x="28" y="-42"/>
      <point x="20" y="-59"/>
      <point x="20" y="-99" type="curve" smooth="yes"/>
      <point x="20" y="-206"/>
      <point x="113" y="-265"/>
      <point x="240" y="-265" type="curve" smooth="yes"/>
      <point x="353" y="-265"/>
      <point x="456" y="-195"/>
      <point x="456" y="-69" type="curve" smooth="yes"/>
      <point x="456" y="500" type="line"/>
      <point x="276" y="470" type="line"/>
      <point x="276" y="-78" type="line" smooth="yes"/>
      <point x="276" y="-112"/>
      <point x="262" y="-125"/>
      <point x="239" y="-125" type="curve" smooth="yes"/>
      <point x="217" y="-125"/>
      <point x="200" y="-114"/>
      <point x="200" y="-82" type="curve" smooth="yes"/>
      <point x="200" y="-58"/>
      <point x="200" y="-50"/>
      <point x="215" y="-38" type="curve" smooth="yes"/>
      <point x="242" y="-18" type="line"/>
      <point x="242" y="160" type="line"/>
      <point x="222" y="160"/>
      <point x="206" y="173"/>
      <point x="206" y="196" type="curve" smooth="yes"/>
      <point x="206" y="500" type="line"/>
    </contour>
  </outline>
</glyph>
<glyph name="zeroprop" format="1">
  <advance width="560"/>
  <outline>
    <contour>
      <point x="524" y="192" type="curve" smooth="yes"/>
      <point x="531" y="275"/>
      <point x="531" y="446"/>
      <point x="524" y="518" type="curve" smooth="yes"/>
      <point x="511" y="649"/>
      <point x="405" y="725"/>
      <point x="280" y="725" type="curve" smooth="yes"/>
      <point x="160" y="725"/>
      <point x="47" y="648"/>
      <point x="35" y="518" type="curve" smooth="yes"/>
      <point x="28" y="441"/>
      <point x="29" y="277"/>
      <point x="35" y="192" type="curve" smooth="yes"/>
      <point x="45" y="56"/>
      <point x="159" y="-15"/>
      <point x="279" y="-15" type="curve" smooth="yes"/>
      <point x="400" y="-15"/>
      <point x="513" y="56"/>
    </contour>
    <contour>
      <point x="337" y="490" type="curve" smooth="yes"/>
      <point x="342" y="429"/>
      <point x="342" y="281"/>
      <point x="337" y="217" type="curve" smooth="yes"/>
      <point x="333" y="172"/>
      <point x="312" y="150"/>
      <point x="279" y="150" type="curve" smooth="yes"/>
      <point x="247" y="150"/>
      <point x="226" y="170"/>
      <point x="223" y="217" type="curve" smooth="yes"/>
      <point x="219" y="290"/>
      <point x="218" y="423"/>
      <point x="223" y="490" type="curve" smooth="yes"/>
      <point x="227" y="539"/>
      <point x="248" y="560"/>
      <point x="281" y="560" type="curve" smooth="yes"/>
      <point x="313" y="560"/>
      <point x="333" y="540"/>
    </contour>
  </outline>
</glyph>
<glyph name="zeroslash" format="1">
  <advance width="513"/>
  <outline>
    <contour>
      <point x="210" y="143" type="line"/>
      <point x="354" y="338" type="line"/>
      <point x="359" y="338"/>
      <point x="332" y="402"/>
      <point x="328" y="401" type="curve"/>
      <point x="132" y="136" type="line"/>
    </contour>
    <component base="zero" xOffset="-7"/>
  </outline>
</glyph>
